<svg width="156" height="125" viewBox="0 0 156 125" fill="none" xmlns="http://www.w3.org/2000/svg">
<path id="base" fill-rule="evenodd" clip-rule="evenodd" d="M77.9232 3.97985C68.9415 3.83775 31.6099 3.76561 15.0511 32.9592C-1.51106 62.1496 2.56171 92.9117 3.26236 95.0159C8.144 109.656 147.706 109.656 152.584 95.0159C153.288 92.9117 157.356 62.1496 140.795 32.9592C124.236 3.76561 86.9049 3.83666 77.9232 3.97985Z" fill="white"/>
<path d="M77.9199 4.21926C73.4383 4.14821 61.8846 4.09574 49.3952 7.69958C36.9179 11.298 23.5027 18.5461 15.2588 33.0784C9.47317 43.2811 6.20928 53.6751 4.44616 62.9661C1.17352 80.1874 3.0361 93.5818 3.48863 94.9427C4.04937 96.6227 6.52845 98.1224 10.4646 99.433C23.1092 103.648 50.5145 105.755 77.9232 105.755C105.332 105.755 132.737 103.648 145.382 99.433C149.318 98.1224 151.797 96.6216 152.358 94.9427C152.81 93.5818 154.673 80.1852 151.403 62.9661C149.637 53.6751 146.376 43.2778 140.588 33.0784C132.347 18.5472 118.928 11.298 106.454 7.69958C93.9617 4.09574 82.408 4.14821 77.9275 4.21926H77.921H77.9199ZM49.263 7.2405C61.8201 3.61808 73.4241 3.67054 77.9232 3.73831C82.4266 3.67054 94.0295 3.61699 106.583 7.2405C119.159 10.8662 132.687 18.1799 141.005 32.839C146.822 43.0942 150.098 53.5406 151.873 62.8754C155.161 80.1896 153.268 93.7152 152.812 95.0903C152.199 96.9277 149.614 98.5269 145.533 99.8877C132.836 104.118 105.374 106.235 77.9221 106.235C50.4697 106.235 23.0119 104.119 10.3148 99.8877C6.23332 98.5269 3.64603 96.9277 3.03501 95.0903C2.57592 93.7141 0.682731 80.1896 3.97395 62.8776C5.74691 53.5395 9.02501 43.0931 14.8423 32.8379C23.1605 18.1788 36.6883 10.8651 49.2608 7.23941L49.263 7.2405Z" fill="black"/>
<path id="visor" fill-rule="evenodd" clip-rule="evenodd" d="M4.5795 117.051C1.14836 115.368 -0.0507326 113.738 0.300142 110.989C0.793115 107.096 3.88868 101.76 6.15788 97.8491C25.3445 108.709 130.509 108.705 149.693 97.8491C153.185 104.531 159.554 112.988 151.267 117.051C131.321 126.828 24.5258 126.828 4.5795 117.051Z" fill="white"/>
<path d="M4.47348 117.265C2.72238 116.407 1.53531 115.555 0.82591 114.56C0.103393 113.547 -0.122871 112.397 0.0607637 110.958C0.559202 107.025 3.66242 101.674 5.93709 97.7497L5.94912 97.7311C6.0147 97.6163 6.16008 97.5759 6.27485 97.6415C15.8293 103.049 46.8702 105.752 77.9232 105.752C108.976 105.752 140.02 103.05 149.572 97.6415C149.69 97.5759 149.835 97.6163 149.901 97.7311L149.907 97.7464C150.363 98.6176 150.883 99.5467 151.413 100.489C152.16 101.821 152.928 103.191 153.605 104.57C156.044 109.547 157.166 114.426 151.374 117.264C141.367 122.17 109.638 124.622 77.9254 124.622C46.2122 124.622 14.4838 122.17 4.47675 117.264L4.47348 117.265ZM1.21614 114.281C1.87635 115.208 3.00439 116.014 4.68444 116.835C14.6237 121.706 46.268 124.145 77.9221 124.145C109.576 124.145 141.225 121.706 151.16 116.835C156.587 114.175 155.498 109.53 153.171 104.782C152.511 103.435 151.742 102.062 150.992 100.726C150.509 99.8648 150.035 99.0155 149.591 98.1782C139.724 103.546 108.817 106.233 77.921 106.233C47.0255 106.233 16.1026 103.546 6.24534 98.1727C4.00127 102.047 1.01392 107.244 0.534063 111.022C0.366824 112.332 0.567947 113.374 1.21614 114.282V114.281Z" fill="black"/>
<path d="M77.8827 3.7416C78.0128 3.71974 78.1363 3.80937 78.1582 3.93944C78.1801 4.06952 78.0926 4.19303 77.9625 4.21489C52.7171 8.4232 37.3704 15.4899 28.346 30.0768C19.3086 44.6857 16.5814 66.8629 16.5814 101.273C16.5814 101.403 16.4732 101.511 16.3398 101.511C16.2065 101.511 16.1015 101.403 16.1015 101.273C16.1015 66.7766 18.8473 44.525 27.9405 29.8254C37.049 15.1018 52.4952 7.97395 77.8827 3.7405V3.7416Z" fill="black"/>
<path id="r-donat" fill-rule="evenodd" clip-rule="evenodd" d="M49.1383 29.9195C50.0128 28.9127 51.413 28.575 52.2711 29.1631C53.1269 29.7522 53.1138 31.0475 52.2426 32.0575C51.3715 33.0642 49.968 33.402 49.1121 32.8139C48.2541 32.2215 48.2661 30.9262 49.1372 29.9195H49.1383ZM50.1516 30.6168C50.4555 30.2692 50.9419 30.1523 51.2392 30.3567C51.5365 30.5611 51.53 31.0103 51.2294 31.3579C50.9255 31.7077 50.4391 31.8258 50.1418 31.6214C49.8477 31.417 49.851 30.9677 50.1516 30.6168Z" fill="white"/>
<path d="M48.9591 29.7653C49.427 29.2231 50.0413 28.857 50.6545 28.7116C51.2863 28.5596 51.9192 28.6307 52.4056 28.9652C52.458 29.0023 52.5105 29.0428 52.5575 29.0832L52.5641 29.0865C52.9423 29.4177 53.1379 29.8855 53.1467 30.3971C53.1565 30.8933 52.9882 31.4322 52.6482 31.9252C52.5826 32.0214 52.5083 32.1209 52.4252 32.2138C51.9574 32.7559 51.3442 33.1188 50.7299 33.2675C50.1003 33.4194 49.4652 33.3484 48.9788 33.0106C48.9263 32.9767 48.876 32.9363 48.8269 32.8958L48.8236 32.8893C48.4421 32.5603 48.2497 32.0924 48.241 31.582C48.2311 31.0857 48.3962 30.5468 48.7372 30.0539C48.8028 29.9544 48.8793 29.8582 48.9602 29.7653H48.9591ZM50.766 29.1761C50.2457 29.2997 49.7243 29.6101 49.322 30.0779C49.2543 30.1555 49.1887 30.2386 49.1296 30.3228C48.8476 30.7316 48.711 31.1753 48.7176 31.5721C48.7241 31.9503 48.8629 32.2946 49.1362 32.5297L49.251 32.616C49.6193 32.8707 50.1156 32.9232 50.6173 32.8018C51.1376 32.6783 51.6612 32.3646 52.0645 31.9C52.1323 31.8224 52.1979 31.7394 52.2536 31.6552C52.5356 31.2431 52.6756 30.8026 52.6657 30.4058C52.6592 30.0276 52.5203 29.6833 52.2471 29.4483L52.1356 29.362C51.7639 29.1051 51.2677 29.0548 50.766 29.1761ZM49.9724 30.4627C50.1549 30.2484 50.3998 30.1063 50.6414 30.0473C50.9015 29.985 51.1682 30.0167 51.3759 30.1588L51.4415 30.208C51.6087 30.3534 51.6951 30.5578 51.6983 30.7818C51.7016 30.983 51.636 31.2038 51.5005 31.4016L51.4109 31.5164C51.2283 31.7306 50.9868 31.8727 50.7419 31.9318C50.4818 31.9941 50.2151 31.9624 50.0107 31.8203L49.9451 31.7678C49.7746 31.6224 49.6915 31.4202 49.6849 31.1972C49.6816 30.9961 49.7505 30.7753 49.886 30.5742C49.9079 30.5403 49.9385 30.5031 49.9724 30.4627ZM50.7528 30.5119C50.6042 30.549 50.4523 30.6387 50.3342 30.7753L50.2785 30.8463C50.1976 30.9611 50.1604 31.0824 50.1637 31.1874C50.1637 31.277 50.1943 31.3546 50.2566 31.4071L50.2785 31.4257C50.3681 31.4847 50.4949 31.4967 50.6282 31.4661C50.7769 31.4289 50.9288 31.3393 51.0469 31.2027L51.1026 31.1316C51.1835 31.0169 51.2207 30.8966 51.2207 30.7873C51.2174 30.701 51.1868 30.6234 51.1278 30.5709L51.1026 30.5523C51.013 30.49 50.8862 30.4813 50.7528 30.5119Z" fill="black"/>
<path d="M77.8827 4.21596C77.7526 4.1941 77.6663 4.07058 77.6871 3.94051C77.7089 3.81043 77.8324 3.7208 77.9625 3.74267C103.353 7.97611 118.796 15.1007 127.905 29.8243C137 44.5239 139.744 66.7722 139.744 101.265C139.744 101.398 139.639 101.507 139.505 101.507C139.372 101.507 139.267 101.398 139.267 101.265C139.267 66.8585 136.537 44.6846 127.5 30.0757C118.479 15.4909 103.133 8.42536 77.8838 4.21705L77.8827 4.21596Z" fill="black"/>
<path id="l-donat" fill-rule="evenodd" clip-rule="evenodd" d="M106.707 29.9195C105.836 28.9127 104.432 28.575 103.576 29.1631C102.718 29.7522 102.73 31.0475 103.601 32.0575C104.476 33.0642 105.876 33.402 106.734 32.8139C107.59 32.2215 107.577 30.9262 106.706 29.9195H106.707ZM105.694 30.6168C105.39 30.2692 104.903 30.1523 104.609 30.3567C104.312 30.5611 104.315 31.0103 104.619 31.3579C104.92 31.7077 105.406 31.8258 105.703 31.6214C106.001 31.417 105.997 30.9677 105.694 30.6168Z" fill="white"/>
<path d="M106.528 30.0779C106.124 29.6134 105.601 29.2997 105.08 29.1761C104.579 29.0548 104.082 29.1051 103.714 29.362L103.599 29.4483C103.327 29.6833 103.187 30.0276 103.181 30.4058C103.174 30.8026 103.311 31.2431 103.593 31.6552C103.652 31.7394 103.716 31.8224 103.785 31.9C104.188 32.3646 104.712 32.6783 105.229 32.8018C105.731 32.9232 106.23 32.8696 106.599 32.616L106.707 32.5318C106.982 32.2968 107.122 31.9525 107.129 31.571C107.138 31.1743 106.999 30.7348 106.717 30.3217C106.661 30.2375 106.595 30.1544 106.528 30.0768V30.0779ZM105.192 28.7116C105.805 28.857 106.419 29.2231 106.887 29.7653C106.971 29.8582 107.046 29.9577 107.11 30.0539C107.451 30.5468 107.619 31.0857 107.609 31.582C107.599 32.0968 107.401 32.5646 107.02 32.8958C106.97 32.9363 106.92 32.9767 106.871 33.0106C106.381 33.3484 105.749 33.4194 105.116 33.2675C104.505 33.1188 103.889 32.7559 103.421 32.2138C103.34 32.1209 103.263 32.0214 103.198 31.9252C102.857 31.4322 102.693 30.8933 102.702 30.3971C102.712 29.8855 102.903 29.4177 103.285 29.0898L103.288 29.0832C103.337 29.0428 103.387 29.0023 103.44 28.9652C103.926 28.6307 104.561 28.5596 105.191 28.7116H105.192ZM105.514 30.7753C105.396 30.6387 105.244 30.549 105.092 30.5119C104.959 30.4813 104.832 30.49 104.743 30.5523L104.721 30.5709C104.658 30.6234 104.628 30.701 104.628 30.7873C104.625 30.8955 104.665 31.0169 104.743 31.1316L104.798 31.2027C104.916 31.3393 105.068 31.4289 105.217 31.4661C105.35 31.4967 105.477 31.4847 105.567 31.4257L105.589 31.4071C105.651 31.3546 105.682 31.277 105.685 31.1874C105.685 31.0824 105.648 30.9611 105.57 30.8463L105.514 30.7753ZM105.204 30.0473C105.449 30.1063 105.69 30.2484 105.873 30.4627L105.963 30.5742C106.099 30.7753 106.164 30.9961 106.16 31.1972C106.157 31.4202 106.071 31.6213 105.903 31.7678L105.838 31.8203C105.63 31.9624 105.364 31.9941 105.103 31.9318C104.862 31.8727 104.62 31.7306 104.434 31.5164L104.348 31.4016C104.211 31.2038 104.144 30.983 104.147 30.7818C104.153 30.5589 104.24 30.3545 104.407 30.208L104.473 30.1588C104.677 30.0167 104.944 29.985 105.204 30.0473Z" fill="black"/>
<path d="M78.1647 105.997C78.1647 106.127 78.0565 106.235 77.9232 106.235C77.7898 106.235 77.6849 106.127 77.6849 105.997V6.44473C77.6849 6.31137 77.7931 6.20316 77.9232 6.20316C78.0532 6.20316 78.1647 6.31137 78.1647 6.44473V105.997Z" fill="black"/>
<path fill-rule="evenodd" clip-rule="evenodd" d="M4.7653 115.648C1.56699 114.074 0.31215 112.549 0.448784 110.107C0.386479 110.411 0.33401 110.705 0.300125 110.99C-0.0496563 113.739 1.14944 115.369 4.57948 117.052C24.5258 126.83 131.321 126.83 151.267 117.052C155.051 115.196 155.779 112.428 155.122 109.332C155.283 111.855 154.273 114.08 151.081 115.648C131.185 125.425 24.6624 125.425 4.7664 115.648H4.7653Z" fill="black"/>
<path d="M4.66257 115.861C3.02953 115.058 1.88837 114.262 1.16695 113.35L1.15492 113.331C0.866355 112.96 0.643368 112.572 0.488153 112.156C0.535155 112.959 0.766885 113.651 1.21614 114.279C1.87635 115.206 3.00439 116.012 4.68444 116.832C14.6237 121.704 46.268 124.143 77.9221 124.143C109.576 124.143 141.225 121.704 151.16 116.832C152.994 115.934 154.088 114.818 154.64 113.56C154.875 113.018 155.012 112.45 155.067 111.856C154.941 112.237 154.776 112.609 154.562 112.968C153.909 114.071 152.823 115.054 151.185 115.86C141.203 120.765 109.554 123.22 77.9221 123.22C46.2898 123.22 14.6445 120.765 4.66257 115.86V115.861ZM1.54515 113.053C2.21739 113.908 3.30499 114.662 4.87026 115.432C14.7844 120.304 46.3489 122.74 77.9221 122.74C109.495 122.74 141.06 120.304 150.974 115.432C152.524 114.67 153.543 113.752 154.15 112.724C154.755 111.7 154.959 110.56 154.882 109.346C154.875 109.228 154.953 109.12 155.071 109.095C155.201 109.066 155.328 109.15 155.356 109.28C155.694 110.873 155.672 112.389 155.077 113.749C154.483 115.112 153.317 116.309 151.371 117.263C141.364 122.169 109.635 124.621 77.9221 124.621C46.2089 124.621 14.4805 122.169 4.47348 117.263C2.72238 116.405 1.53531 115.552 0.82591 114.558C0.103393 113.544 -0.122871 112.395 0.0607637 110.956C0.0793458 110.807 0.101208 110.662 0.126348 110.519L0.212702 110.066C0.231284 109.948 0.336217 109.859 0.460826 109.865C0.59418 109.874 0.69365 109.987 0.687092 110.119C0.621508 111.272 0.884936 112.208 1.53312 113.038L1.54515 113.05V113.053Z" fill="black"/>
<path id="pomp" fill-rule="evenodd" clip-rule="evenodd" d="M71.7124 5.73095C72.5125 6.67974 83.3338 6.67974 84.1362 5.73095C89.6835 -1.58931 66.164 -1.58931 71.7124 5.73095Z" fill="white"/>
<path d="M71.8982 5.58229L71.908 5.59104C72.3879 5.99657 75.1468 6.20206 77.9232 6.20206C80.6996 6.20206 83.4585 5.99766 83.9416 5.59104L83.9515 5.58229C85.1691 3.97111 84.8685 2.75235 83.7776 1.9249C82.5075 0.960811 80.2197 0.480952 77.9232 0.480952C75.6267 0.480952 73.3432 0.960811 72.072 1.9249C70.9811 2.75235 70.6805 3.97002 71.8982 5.58229ZM71.5976 5.95721L71.52 5.87633C70.0881 3.98532 70.4663 2.5381 71.7834 1.54013C73.1377 0.514837 75.5359 0 77.9232 0C80.3104 0 82.7108 0.514837 84.0651 1.54013C85.3823 2.5381 85.7572 3.98532 84.3253 5.87633L84.3154 5.88835C84.2969 5.91021 84.2717 5.93536 84.2477 5.95612C83.6771 6.43926 80.7892 6.68082 77.9221 6.68082C75.055 6.68082 72.1704 6.43926 71.5965 5.95612L71.5976 5.95721Z" fill="black"/>
</svg>
