<svg width="98" height="57" viewBox="0 0 98 57" fill="none" xmlns="http://www.w3.org/2000/svg">
<path d="M31.92 42.83C31.92 42.83 24.36 40.81 24.54 36.42C24.54 36.42 21.42 13.22 35.04 6.51997C35.04 6.51997 50.15 -1.32003 64.25 3.01997" fill="#6EC8E7"/>
<path d="M69.53 49.63C69.53 49.63 92.98 50.99 95.67 47.52C95.67 47.52 99.91 31.32 95.35 19.06C93.32 13.6 88.51 9.16997 82.37 6.89997C76.88 4.86997 68.31 2.11997 64.25 3.00997L69.53 49.63Z" fill="#1A8AA6"/>
<path d="M64.25 3.02002C64.25 3.02002 77.67 6.82002 69.53 49.64C69.53 49.64 41.49 46.6 31.92 42.84C31.92 42.84 25.45 4.70002 64.25 3.03002V3.02002Z" fill="#58B5CF"/>
<path d="M67.71 2.6C67.64 3.57 65.9 4.24 63.82 4.09C61.74 3.94 60.12 3.02 60.19 2.05C60.26 1.08 62 0.409997 64.08 0.559997C66.16 0.709997 67.78 1.63 67.71 2.6Z" fill="#127384"/>
<path d="M24.45 35.68C24.45 35.68 -7.97 39.67 1.85 44.06C1.85 44.06 44.65 62.01 78.57 49.89L24.45 35.68Z" fill="#1A8AA6"/>
<path d="M0.58 41.75C0.58 41.75 -5.12 46.59 20.88 54.09C20.88 54.09 63.62 61.96 78.57 49.89C78.57 49.89 33.26 61.15 0.58 41.75Z" fill="#26384C"/>
<path d="M32 44.06C31.87 45.78 26.79 46.81 20.65 46.36C14.51 45.91 9.63 44.15 9.76 42.43C9.89 40.71 14.97 39.68 21.11 40.13C27.25 40.58 32.13 42.34 32 44.06Z" fill="#E6BB96"/>
</svg>
