<svg width="99" height="57" viewBox="0 0 99 57" fill="none" xmlns="http://www.w3.org/2000/svg">
<path d="M32.71 42.47C32.71 42.47 25.15 40.45 25.33 36.06C25.33 36.06 22.21 12.86 35.83 6.15999C35.83 6.15999 50.94 -1.68001 65.04 2.65999" fill="#ADBC33"/>
<path d="M70.32 49.27C70.32 49.27 93.77 50.63 96.46 47.16C96.46 47.16 100.7 30.96 96.14 18.7C94.11 13.24 89.3 8.80999 83.16 6.53999C77.67 4.50999 69.1 1.75999 65.04 2.64999L70.32 49.27Z" fill="#625B1F"/>
<path d="M65.04 2.66003C65.04 2.66003 78.46 6.46003 70.32 49.28C70.32 49.28 42.28 46.24 32.71 42.48C32.71 42.48 26.24 4.34003 65.04 2.67003V2.66003Z" fill="#898724"/>
<path d="M68.5 2.24001C68.43 3.21001 66.69 3.88001 64.61 3.73001C62.53 3.58001 60.91 2.66001 60.98 1.69001C61.05 0.720011 62.79 0.0500116 64.87 0.200012C66.95 0.350012 68.57 1.27001 68.5 2.24001Z" fill="#625B1F"/>
<path d="M25.25 35.32C25.25 35.32 -7.16997 39.31 2.65003 43.7C2.65003 43.7 45.45 61.65 79.37 49.53L25.25 35.32Z" fill="#959022"/>
<path d="M1.37001 41.39C1.37001 41.39 -4.32997 46.23 21.67 53.73C21.67 53.73 64.41 61.6 79.36 49.53C79.36 49.53 34.05 60.79 1.37001 41.39Z" fill="#625B1F"/>
<path d="M32.79 43.7C32.66 45.42 27.58 46.45 21.44 46C15.3 45.55 10.42 43.79 10.55 42.07C10.68 40.35 15.76 39.32 21.9 39.77C28.04 40.22 32.92 41.98 32.79 43.7Z" fill="#F7EBBD"/>
</svg>
