<svg width="99" height="57" viewBox="0 0 99 57" fill="none" xmlns="http://www.w3.org/2000/svg">
<path d="M32.75 42.51C32.75 42.51 25.19 40.49 25.37 36.1C25.37 36.1 22.25 12.9 35.87 6.20003C35.87 6.20003 50.98 -1.63997 65.08 2.70003" fill="#418258"/>
<path d="M70.36 49.31C70.36 49.31 93.81 50.67 96.5 47.2C96.5 47.2 100.74 31 96.18 18.74C94.15 13.28 89.34 8.85001 83.2 6.58001C77.71 4.55001 69.14 1.80003 65.08 2.69003L70.36 49.31Z" fill="#2C603B"/>
<path d="M65.08 2.69006C65.08 2.69006 78.5 6.49006 70.36 49.3101C70.36 49.3101 42.32 46.2701 32.75 42.5101C32.75 42.5101 26.28 4.37007 65.08 2.70007V2.69006Z" fill="#203822"/>
<path d="M68.54 2.27002C68.47 3.24002 66.73 3.91004 64.65 3.76004C62.57 3.61004 60.95 2.69003 61.02 1.72003C61.09 0.750031 62.83 0.0800412 64.91 0.230041C66.99 0.380041 68.61 1.30002 68.54 2.27002Z" fill="#418258"/>
<path d="M25.29 35.35C25.29 35.35 -7.12999 39.34 2.69001 43.73C2.69001 43.73 45.49 61.68 79.41 49.56L25.29 35.35Z" fill="#1D281B"/>
<path d="M1.42003 41.42C1.42003 41.42 -4.27996 46.26 21.72 53.76C21.72 53.76 64.46 61.63 79.41 49.56C79.41 49.56 34.1 60.82 1.42003 41.42Z" fill="#418258"/>
<path d="M32.84 43.7301C32.71 45.4501 27.63 46.48 21.49 46.03C15.35 45.58 10.47 43.8201 10.6 42.1001C10.73 40.3801 15.81 39.35 21.95 39.8C28.09 40.25 32.97 42.0101 32.84 43.7301Z" fill="#58B5CF"/>
</svg>
