<svg width="157" height="108" viewBox="0 0 157 108" fill="none" xmlns="http://www.w3.org/2000/svg">
<path fill-rule="evenodd" clip-rule="evenodd" d="M143.687 37.2605C158.337 59.0136 157.202 92.4156 156.08 95.0805C154.956 97.7453 148.6 103.08 136.11 105.326C125.436 107.244 114.618 107.099 111.339 106.81C109.938 106.687 110.171 106.587 110.106 104.969C109.892 99.4997 110.822 82.4074 109.905 77.6012C108.485 70.1629 102.647 53.7133 78.4585 53.7133C54.2701 53.7133 48.4309 70.1629 47.0121 77.6012C46.095 82.4074 47.0241 99.4997 46.8077 104.969C46.7454 106.587 46.9749 106.687 45.5769 106.81C42.2944 107.099 31.4785 107.244 20.8058 105.326C8.31318 103.078 1.957 97.7453 0.835509 95.0805C-0.285977 92.4156 -1.42386 59.0125 13.2254 37.2605C38.1331 -6.28508 118.781 -6.28508 143.688 37.2605H143.687Z" fill="white"/>
<path d="M143.892 37.1358C149.223 45.0507 152.467 54.497 154.385 63.4536C157.761 79.1937 157.023 93.4593 156.3 95.1733C155.633 96.7506 153.205 99.2296 148.843 101.465C145.67 103.095 141.459 104.608 136.15 105.562C131.86 106.333 127.549 106.771 123.713 107C117.973 107.345 113.287 107.223 111.316 107.049C109.903 106.923 109.9 106.82 109.881 105.577C109.878 105.41 109.874 105.211 109.866 104.979C109.788 102.993 109.859 99.481 109.94 95.5832C110.082 88.7373 110.247 80.6891 109.667 77.646C108.963 73.9547 107.162 68.0292 102.542 63.0306C97.9217 58.032 90.4713 53.9537 78.4553 53.9537C66.4392 53.9537 58.9867 58.032 54.3663 63.0306C49.7481 68.0292 47.9478 73.9547 47.2449 77.646C46.6623 80.6891 46.8296 88.7373 46.9695 95.5832C47.0504 99.4821 47.1214 102.993 47.0438 104.979C47.034 105.215 47.0318 105.41 47.0285 105.577C47.0099 106.82 47.0066 106.923 45.5933 107.049C43.6225 107.223 38.9398 107.343 33.1968 107C29.3635 106.771 25.0524 106.333 20.7599 105.562C15.4509 104.608 11.2426 103.095 8.06615 101.465C3.70591 99.2307 1.27602 96.7516 0.612527 95.1733C-0.10999 93.4593 -0.846715 79.1937 2.5243 63.4536C4.44263 54.497 7.69013 45.0507 13.0177 37.1358C18.3574 27.801 26.2482 20.4622 35.595 15.1138C48.1314 7.94547 63.2944 4.36023 78.4553 4.36023C93.6161 4.36023 108.777 7.94548 121.313 15.1171C130.663 20.4633 138.551 27.8021 143.891 37.1358H143.892ZM153.917 63.5531C152.008 54.6489 148.785 45.2617 143.492 37.4025L143.48 37.3807C138.184 28.1202 130.355 20.8371 121.076 15.5325C108.614 8.40457 93.5374 4.84007 78.4574 4.84007C63.3775 4.84007 48.2965 8.40457 35.8355 15.5325C26.5565 20.8382 18.7279 28.1213 13.4353 37.3807L13.4233 37.3927C8.12955 45.2551 4.90391 54.6457 2.99432 63.552C-0.359209 79.1992 0.344726 93.303 1.05413 94.9864C1.68373 96.4828 4.03601 98.8602 8.28476 101.039C11.424 102.65 15.5864 104.144 20.8452 105.09C25.1092 105.855 29.405 106.292 33.2264 106.521C38.9376 106.863 43.5963 106.741 45.5551 106.568C46.5377 106.482 46.541 106.41 46.553 105.571C46.5563 105.393 46.5596 105.189 46.5683 104.963C46.6459 102.982 46.5749 99.4799 46.494 95.5908C46.3519 88.7198 46.1868 80.6442 46.776 77.5574C47.4887 73.8104 49.3207 67.7887 54.0187 62.707C58.7199 57.621 66.2818 53.4717 78.4585 53.4717C90.6353 53.4717 98.1971 57.621 102.895 62.707C107.596 67.7898 109.425 73.8115 110.141 77.5574C110.73 80.6442 110.563 88.7209 110.42 95.5908C110.342 99.4799 110.268 102.982 110.345 104.959C110.355 105.189 110.358 105.393 110.361 105.571C110.373 106.41 110.376 106.482 111.359 106.568C113.321 106.742 117.978 106.863 123.687 106.521C127.512 106.292 131.803 105.855 136.069 105.09C141.327 104.144 145.49 102.651 148.629 101.039C152.878 98.8602 155.23 96.4828 155.86 94.9864C156.569 93.303 157.273 79.1992 153.919 63.552L153.917 63.5531Z" fill="black"/>
<path fill-rule="evenodd" clip-rule="evenodd" d="M84.2157 4.7811C87.8327 -1.28651 68.5215 -1.27776 72.216 4.81171C76.2079 4.55156 80.2238 4.53953 84.2157 4.7811Z" fill="white"/>
<path d="M84.0824 4.53406C84.8049 3.21036 84.3054 2.21894 83.1893 1.55326C81.9804 0.834026 80.0807 0.474425 78.1809 0.477704C76.2812 0.480983 74.3901 0.846068 73.1943 1.57186C72.0914 2.24082 71.6072 3.23878 72.345 4.56248C74.294 4.43896 76.2527 4.37666 78.2148 4.3701C80.1768 4.36354 82.1356 4.41929 84.0813 4.53406H84.0824ZM83.4342 1.14336C84.8191 1.96754 85.4181 3.21691 84.4289 4.8904C84.3884 4.97129 84.2988 5.02705 84.2026 5.02049C82.2067 4.89916 80.2074 4.84341 78.2148 4.84669C76.2254 4.85325 74.2262 4.921 72.2302 5.05108C72.1439 5.05436 72.0565 5.01393 72.0105 4.93633C70.9907 3.253 71.57 1.99816 72.9462 1.16196C74.2196 0.39026 76.2035 0.00330016 78.1809 2.09611e-05C80.1615 -0.00325824 82.1476 0.378218 83.4342 1.14336Z" fill="black"/>
<path fill-rule="evenodd" clip-rule="evenodd" d="M114.897 23.1129C114.026 22.1062 112.622 21.7684 111.766 22.3565C110.908 22.9489 110.92 24.2442 111.792 25.2509C112.666 26.2576 114.066 26.5965 114.924 26.0073C115.78 25.4182 115.77 24.1229 114.896 23.1129H114.897ZM113.884 23.8135C113.58 23.4638 113.097 23.3457 112.799 23.5501C112.502 23.7545 112.505 24.2038 112.809 24.5547C113.11 24.9022 113.596 25.0192 113.894 24.8148C114.191 24.6104 114.188 24.1611 113.884 23.8135Z" fill="white"/>
<path d="M114.717 23.2714C114.313 22.8069 113.79 22.4932 113.269 22.3697C112.768 22.2483 112.271 22.3019 111.903 22.5555L111.792 22.6396C111.519 22.8779 111.376 23.2223 111.37 23.6005C111.363 24.0005 111.5 24.4399 111.782 24.8498C111.841 24.934 111.905 25.0171 111.974 25.0979C112.377 25.5625 112.901 25.8729 113.421 25.9964C113.923 26.12 114.419 26.0675 114.788 25.8139L114.896 25.7297C115.171 25.4915 115.311 25.1471 115.318 24.7689C115.328 24.3689 115.188 23.9295 114.909 23.5196C114.85 23.4332 114.785 23.349 114.717 23.2714ZM113.381 21.9051C113.994 22.0538 114.608 22.4166 115.076 22.9588C115.16 23.055 115.235 23.1512 115.303 23.2474C115.64 23.7404 115.808 24.2792 115.799 24.7755C115.79 25.2903 115.591 25.7582 115.21 26.0894C115.16 26.1331 115.11 26.1702 115.061 26.2074C114.575 26.5419 113.939 26.6162 113.307 26.4621C112.696 26.3167 112.079 25.9505 111.611 25.4084C111.53 25.3155 111.456 25.2193 111.388 25.1231C111.047 24.6268 110.883 24.088 110.892 23.5917C110.902 23.0801 111.096 22.6123 111.475 22.2844L111.481 22.2778C111.528 22.2341 111.577 22.1969 111.63 22.1631C112.116 21.8253 112.751 21.7543 113.381 21.9062V21.9051ZM113.703 23.9688C113.585 23.8322 113.433 23.7425 113.281 23.7054C113.148 23.6748 113.021 23.6868 112.934 23.7458L112.909 23.7644C112.846 23.8169 112.816 23.8945 112.816 23.9841C112.813 24.0891 112.853 24.2104 112.931 24.3251L112.986 24.3962C113.104 24.5328 113.256 24.6225 113.408 24.6596L113.415 24.6629C113.545 24.6913 113.668 24.6782 113.756 24.6192L113.781 24.6006C113.84 24.5481 113.871 24.4705 113.874 24.3842C113.874 24.276 113.837 24.1546 113.759 24.0399L113.703 23.9688ZM113.393 23.2408C113.638 23.2999 113.879 23.442 114.062 23.6562L114.152 23.771C114.288 23.9688 114.353 24.1896 114.349 24.3907C114.346 24.6137 114.26 24.8181 114.092 24.9646L114.027 25.0138C113.822 25.1537 113.562 25.1876 113.304 25.1286L113.292 25.1253C113.051 25.0663 112.809 24.9241 112.623 24.7099L112.537 24.5984C112.4 24.4006 112.333 24.1798 112.336 23.9754C112.342 23.7557 112.429 23.5513 112.596 23.4048L112.662 23.3523C112.869 23.2102 113.133 23.1785 113.393 23.2408Z" fill="black"/>
<path fill-rule="evenodd" clip-rule="evenodd" d="M42.0146 23.1129C42.8891 22.1062 44.2893 21.7684 45.1473 22.3565C46.0032 22.9489 45.9901 24.2442 45.1189 25.2509C44.2478 26.2576 42.8443 26.5965 41.9884 26.0073C41.1303 25.4182 41.1424 24.1229 42.0135 23.1129H42.0146ZM43.0279 23.8135C43.3318 23.4638 43.8182 23.3457 44.1155 23.5501C44.4128 23.7545 44.4062 24.2038 44.1057 24.5547C43.8018 24.9022 43.3154 25.0192 43.018 24.8148C42.7207 24.6104 42.7262 24.1611 43.0279 23.8135Z" fill="white"/>
<path d="M41.8354 22.9577C42.3032 22.4155 42.9175 22.0527 43.5307 21.904C44.1625 21.7521 44.7954 21.8231 45.2818 22.1609C45.3343 22.1947 45.3846 22.2352 45.4305 22.2756L45.437 22.2822C45.8185 22.6112 46.0131 23.079 46.0229 23.5895C46.0328 24.0858 45.8644 24.6246 45.5245 25.1209C45.4589 25.2171 45.3846 25.3133 45.3015 25.4062C44.8337 25.9484 44.2204 26.3145 43.6061 26.4599C42.9765 26.6151 42.3415 26.5408 41.8551 26.2052C41.8026 26.168 41.7523 26.1309 41.7064 26.0872C41.3216 25.756 41.1271 25.2881 41.1172 24.7733C41.1074 24.2771 41.2724 23.7382 41.6135 23.2452C41.6791 23.149 41.7534 23.0528 41.8365 22.9566L41.8354 22.9577ZM43.6422 22.3686C43.1219 22.4921 42.5983 22.8058 42.1983 23.2703C42.1272 23.3479 42.0649 23.431 42.0059 23.5185C41.7239 23.9273 41.5873 24.3678 41.5938 24.7678C41.6004 25.146 41.7425 25.4904 42.0157 25.7286L42.1239 25.8128C42.4956 26.0664 42.9918 26.12 43.4936 25.9953C44.0139 25.8718 44.5374 25.5614 44.9408 25.0968C45.0086 25.016 45.0709 24.9329 45.1299 24.8487C45.4119 24.4399 45.5518 23.9994 45.542 23.5994C45.5354 23.2211 45.3966 22.8768 45.1233 22.6385L45.0118 22.5544C44.6402 22.3008 44.1439 22.2472 43.6422 22.3686ZM42.8486 23.6551C43.0312 23.4409 43.276 23.2988 43.5176 23.2397C43.7778 23.1774 44.0445 23.2091 44.2522 23.3512L44.3177 23.4037C44.485 23.5491 44.5713 23.7535 44.5746 23.9743C44.5779 24.1787 44.5123 24.3984 44.3735 24.5973L44.2871 24.7088C44.1046 24.923 43.8597 25.0651 43.6182 25.1242L43.6061 25.1275C43.3493 25.1865 43.0891 25.1526 42.8836 25.0127L42.818 24.9635C42.6508 24.8181 42.5645 24.6137 42.5612 24.3896C42.5579 24.1885 42.6268 23.9677 42.7623 23.7698L42.8486 23.6551ZM43.6291 23.7043C43.4804 23.7414 43.3285 23.8311 43.2105 23.9677L43.1547 24.0388C43.0738 24.1535 43.0367 24.2738 43.0367 24.3831C43.0399 24.4694 43.0705 24.547 43.1296 24.5995L43.1547 24.6181C43.2443 24.6771 43.3657 24.6891 43.4958 24.6618L43.5045 24.6585C43.6531 24.6214 43.8051 24.5317 43.9231 24.3951L43.9789 24.324C44.0598 24.2093 44.0969 24.089 44.0969 23.983C44.0937 23.8934 44.063 23.8158 44.004 23.7633L43.9789 23.7447C43.8893 23.6824 43.7625 23.6737 43.6291 23.7043Z" fill="black"/>
<path d="M72.3363 4.56469C72.4664 4.54938 72.5877 4.63903 72.603 4.77238C72.6216 4.90246 72.5287 5.02378 72.3986 5.03909C47.1815 8.35545 29.5318 18.474 18.1891 34.0928C6.83756 49.7247 1.78868 70.8756 1.77666 96.2424C1.77666 96.3724 1.67172 96.4807 1.53837 96.4807C1.40501 96.4807 1.30008 96.3724 1.30008 96.2424C1.3121 70.7739 6.38831 49.5291 17.8032 33.8141C29.2236 18.0859 46.9782 7.89963 72.3385 4.56469H72.3363ZM84.513 5.03909C84.383 5.02378 84.2933 4.90246 84.3086 4.77238C84.3239 4.63903 84.4453 4.54938 84.5754 4.56469C109.936 7.89963 127.69 18.0859 139.114 33.8141C150.528 49.5302 155.604 70.7739 155.614 96.2424C155.614 96.3724 155.509 96.4807 155.375 96.4807C155.242 96.4807 155.137 96.3724 155.137 96.2424C155.127 70.8767 150.076 49.7247 138.725 34.0928C127.382 18.4729 109.732 8.35436 84.5152 5.03909H84.513Z" fill="black"/>
<path d="M78.2159 4.60179C78.2159 4.46844 78.3241 4.36023 78.4574 4.36023C78.5908 4.36023 78.6957 4.46844 78.6957 4.60179V53.7133C78.6957 53.8466 78.5875 53.9516 78.4574 53.9516C78.3274 53.9516 78.2159 53.8466 78.2159 53.7133V4.60179Z" fill="black"/>
<path fill-rule="evenodd" clip-rule="evenodd" d="M46.6011 87.3043H93.1526C98.055 87.3043 102.066 91.3181 102.066 96.2172C102.066 101.12 98.055 105.13 93.1526 105.13H46.799C46.8023 105.078 46.8023 105.025 46.8055 104.969C46.9389 101.616 46.6383 93.89 46.6011 87.3043Z" fill="white"/>
<path d="M46.6011 87.066H93.1527C95.6722 87.066 97.9589 88.0946 99.6171 89.7561C101.275 91.4143 102.307 93.7009 102.307 96.2172C102.307 98.7334 101.275 101.023 99.6171 102.682C97.9589 104.34 95.6722 105.372 93.1527 105.372H46.799C46.6689 105.372 46.5607 105.263 46.5607 105.13L46.5673 104.96C46.6449 102.985 46.5738 99.4833 46.4929 95.5941C46.4372 92.8954 46.3782 90.0064 46.3629 87.3076C46.3629 87.1742 46.4678 87.066 46.6011 87.066ZM93.1527 87.5459H46.8427C46.858 90.1682 46.917 92.9631 46.9695 95.5854C47.0504 99.4253 47.1214 102.89 47.0471 104.892H93.1527C95.5388 104.892 97.7053 103.916 99.2793 102.344C100.85 100.773 101.827 98.6034 101.827 96.2172C101.827 93.831 100.851 91.6646 99.2793 90.0938C97.7053 88.5231 95.5388 87.5459 93.1527 87.5459Z" fill="black"/>
<path fill-rule="evenodd" clip-rule="evenodd" d="M46.6143 88.851H93.1538C97.2047 88.851 100.523 92.1706 100.523 96.2172C100.523 100.264 97.2036 103.587 93.1538 103.587H46.8372C46.8678 100.116 46.6766 94.2518 46.6143 88.8499V88.851Z" fill="white"/>
<path d="M46.6143 88.6094H93.1538C95.2459 88.6094 97.1489 89.4675 98.5273 90.8469C99.9067 92.2264 100.761 94.1294 100.761 96.2172C100.761 98.3049 99.9056 100.212 98.5273 101.591C97.1478 102.97 95.2448 103.828 93.1538 103.828H46.8372C46.7039 103.828 46.5957 103.72 46.5957 103.587L46.599 103.565C46.6143 101.538 46.5552 98.6864 46.494 95.5941C46.447 93.4058 46.4011 91.0907 46.376 88.851C46.376 88.7209 46.4809 88.6127 46.6143 88.6094ZM93.1538 89.0893H46.8558C46.881 91.2426 46.9269 93.4714 46.9706 95.5854C47.0329 98.5694 47.0887 101.328 47.0788 103.348H93.1538C95.1125 103.348 96.8942 102.546 98.1862 101.253C99.4782 99.9576 100.284 98.1759 100.284 96.2172C100.284 94.2584 99.4782 92.4767 98.1862 91.1847C96.8942 89.8927 95.1114 89.0893 93.1538 89.0893Z" fill="black"/>
<path fill-rule="evenodd" clip-rule="evenodd" d="M47.7543 93.6299H96.3542C97.7796 93.6299 98.9415 94.7951 98.9415 96.2172C98.9415 97.6425 97.7796 98.8045 96.3542 98.8045H47.7543V93.6288V93.6299Z" fill="white"/>
<path d="M47.7543 93.3916H96.3575C97.1357 93.3916 97.8419 93.7108 98.3534 94.2223C98.865 94.7339 99.1842 95.44 99.1842 96.2183C99.1842 96.9965 98.865 97.7059 98.3534 98.2175C97.8419 98.729 97.1357 99.0482 96.3575 99.0482H47.7543C47.6209 99.0482 47.516 98.94 47.516 98.8066V93.631C47.516 93.5009 47.6209 93.3927 47.7543 93.3927V93.3916ZM96.3575 93.8714H47.9958V98.5662H96.3575C97.0024 98.5662 97.5883 98.3028 98.0124 97.8754C98.4398 97.4513 98.7032 96.8654 98.7032 96.2172C98.7032 95.569 98.4398 94.9864 98.0124 94.559C97.5883 94.1349 97.0024 93.8714 96.3575 93.8714Z" fill="black"/>
<path fill-rule="evenodd" clip-rule="evenodd" d="M51.368 97.5879C52.1211 97.5879 52.7376 96.9747 52.7376 96.2183C52.7376 95.4619 52.1211 94.8519 51.368 94.8519C50.6149 94.8519 50.0016 95.4651 50.0016 96.2183C50.0016 96.9714 50.6149 97.5879 51.368 97.5879Z" fill="white"/>
<path d="M51.368 94.6092C51.8107 94.6092 52.214 94.7918 52.5058 95.0804L52.5211 95.0957C52.8032 95.3875 52.977 95.7832 52.977 96.2171C52.977 96.6511 52.7977 97.0632 52.5058 97.355C52.214 97.6458 51.8117 97.8261 51.368 97.8261C50.9242 97.8261 50.5219 97.6469 50.2301 97.355C49.9393 97.0632 49.759 96.6642 49.759 96.2171C49.759 95.7701 49.9382 95.3744 50.2301 95.0826C50.5219 94.7907 50.9242 94.6082 51.368 94.6082V94.6092ZM52.167 95.4214C51.9626 95.217 51.6806 95.0902 51.368 95.0902C51.0553 95.0902 50.7733 95.217 50.5711 95.4214C50.3667 95.6258 50.2399 95.9078 50.2399 96.2182C50.2399 96.5287 50.3667 96.8129 50.5711 97.0173C50.7755 97.2217 51.0575 97.3463 51.368 97.3463C51.6784 97.3463 51.9626 97.2228 52.167 97.0173C52.3681 96.8129 52.496 96.5309 52.496 96.2182C52.496 95.9056 52.3747 95.6356 52.1801 95.4345L52.1681 95.4225L52.167 95.4214Z" fill="black"/>
<path fill-rule="evenodd" clip-rule="evenodd" d="M58.6358 97.5879C59.3922 97.5879 60.0054 96.9747 60.0054 96.2183C60.0054 95.4619 59.3922 94.8519 58.6358 94.8519C57.8794 94.8519 57.2694 95.4651 57.2694 96.2183C57.2694 96.9714 57.8827 97.5879 58.6358 97.5879Z" fill="white"/>
<path d="M58.6358 94.6092C59.0818 94.6092 59.4851 94.7918 59.7737 95.0804L59.789 95.0957C60.071 95.3875 60.2448 95.7832 60.2448 96.2171C60.2448 96.6511 60.0655 97.0632 59.7737 97.355C59.4851 97.6458 59.0829 97.8261 58.6358 97.8261C58.1887 97.8261 57.7898 97.6469 57.4979 97.355C57.2094 97.0632 57.0301 96.6642 57.0301 96.2171C57.0301 95.7701 57.2094 95.3744 57.4979 95.0826C57.792 94.7907 58.192 94.6082 58.6358 94.6082V94.6092ZM59.4348 95.4214C59.2304 95.217 58.9484 95.0902 58.6358 95.0902C58.3232 95.0902 58.0434 95.217 57.839 95.4214C57.6346 95.6258 57.5078 95.9078 57.5078 96.2182C57.5078 96.5287 57.6346 96.8129 57.839 97.0173C58.0434 97.2217 58.3254 97.3463 58.6358 97.3463C58.9462 97.3463 59.2304 97.2228 59.4348 97.0173C59.6392 96.8118 59.7639 96.5309 59.7639 96.2182C59.7639 95.9056 59.6425 95.6356 59.448 95.4345L59.4359 95.4225L59.4348 95.4214Z" fill="black"/>
<path fill-rule="evenodd" clip-rule="evenodd" d="M65.9058 97.5879C66.6589 97.5879 67.2721 96.9747 67.2721 96.2183C67.2721 95.4619 66.6589 94.8519 65.9058 94.8519C65.1526 94.8519 64.5362 95.4651 64.5362 96.2183C64.5362 96.9714 65.1526 97.5879 65.9058 97.5879Z" fill="white"/>
<path d="M65.9057 94.6092C66.3484 94.6092 66.7518 94.7918 67.0436 95.0804L67.0557 95.0957C67.3377 95.3875 67.5147 95.7832 67.5147 96.2171C67.5147 96.6511 67.3322 97.0632 67.0436 97.355C66.7518 97.6458 66.3495 97.8261 65.9057 97.8261C65.462 97.8261 65.0597 97.6469 64.7679 97.355C64.476 97.0632 64.2968 96.6642 64.2968 96.2171C64.2968 95.7701 64.476 95.3744 64.7679 95.0826C65.0597 94.7907 65.462 94.6082 65.9057 94.6082V94.6092ZM66.7026 95.4214C66.4982 95.217 66.2162 95.0902 65.9057 95.0902C65.5953 95.0902 65.3111 95.217 65.1067 95.4214C64.9023 95.6258 64.7777 95.9078 64.7777 96.2182C64.7777 96.5287 64.9012 96.8129 65.1067 97.0173C65.3111 97.2217 65.5931 97.3463 65.9057 97.3463C66.2184 97.3463 66.4982 97.2228 66.7026 97.0173C66.907 96.8129 67.0338 96.5309 67.0338 96.2182C67.0338 95.9056 66.9125 95.6356 66.7146 95.4345L66.7026 95.4225V95.4214Z" fill="black"/>
<path fill-rule="evenodd" clip-rule="evenodd" d="M73.1736 97.5879C73.9267 97.5879 74.5399 96.9747 74.5399 96.2183C74.5399 95.4619 73.9267 94.8519 73.1736 94.8519C72.4204 94.8519 71.804 95.4651 71.804 96.2183C71.804 96.9714 72.4204 97.5879 73.1736 97.5879Z" fill="white"/>
<path d="M73.1736 94.6093C73.6163 94.6093 74.0196 94.7918 74.3115 95.0804C74.6033 95.3711 74.7826 95.7745 74.7826 96.2182C74.7826 96.662 74.6033 97.0643 74.3115 97.3561C74.0174 97.6469 73.6174 97.8272 73.1736 97.8272C72.7298 97.8272 72.3275 97.648 72.0357 97.3561C71.7438 97.0643 71.5646 96.6653 71.5646 96.2182C71.5646 95.7712 71.7438 95.3755 72.0357 95.0837C72.3275 94.7918 72.7298 94.6093 73.1736 94.6093ZM73.9704 95.4214C73.7693 95.217 73.484 95.0902 73.1736 95.0902C72.8631 95.0902 72.5789 95.217 72.3745 95.4214C72.1734 95.6258 72.0455 95.9078 72.0455 96.2182C72.0455 96.5287 72.1723 96.8129 72.3745 97.0173C72.5789 97.2217 72.8642 97.3463 73.1736 97.3463C73.4829 97.3463 73.7682 97.2228 73.9704 97.0173C74.1748 96.8129 74.3016 96.5309 74.3016 96.2182C74.3016 95.9056 74.1748 95.6258 73.9704 95.4214Z" fill="black"/>
<path fill-rule="evenodd" clip-rule="evenodd" d="M80.4402 97.5879C81.1934 97.5879 81.8099 96.9747 81.8099 96.2183C81.8099 95.4619 81.1934 94.8519 80.4402 94.8519C79.6871 94.8519 79.0739 95.4651 79.0739 96.2183C79.0739 96.9714 79.6871 97.5879 80.4402 97.5879Z" fill="white"/>
<path d="M80.4403 94.6092C80.8863 94.6092 81.2863 94.7918 81.5782 95.0804L81.5935 95.0957C81.8755 95.3875 82.0493 95.7832 82.0493 96.2171C82.0493 96.6511 81.87 97.0632 81.5782 97.355C81.2863 97.6458 80.8874 97.8261 80.4403 97.8261C79.9932 97.8261 79.5975 97.6469 79.3057 97.355C79.0117 97.0632 78.8313 96.6609 78.8313 96.2171C78.8313 95.7734 79.0106 95.3711 79.3024 95.0793L79.3177 95.0672C79.6096 94.7852 80.0031 94.6082 80.4392 94.6082L80.4403 94.6092ZM81.2393 95.4214C81.0349 95.217 80.7529 95.0902 80.4403 95.0902C80.1277 95.0902 79.8577 95.2115 79.6533 95.4094L79.6435 95.4214C79.439 95.6258 79.3123 95.9078 79.3123 96.2182C79.3123 96.5287 79.439 96.8129 79.6413 97.0173C79.8457 97.2217 80.131 97.3463 80.4403 97.3463C80.7496 97.3463 81.0349 97.2228 81.2393 97.0173C81.4437 96.8129 81.5683 96.5309 81.5683 96.2182C81.5683 95.9056 81.447 95.6356 81.2524 95.4345L81.2404 95.4225L81.2393 95.4214Z" fill="black"/>
<path fill-rule="evenodd" clip-rule="evenodd" d="M87.7114 97.5879C88.4645 97.5879 89.0777 96.9747 89.0777 96.2183C89.0777 95.4619 88.4645 94.8519 87.7114 94.8519C86.9582 94.8519 86.3417 95.4651 86.3417 96.2183C86.3417 96.9714 86.9549 97.5879 87.7114 97.5879Z" fill="white"/>
<path d="M87.7113 94.6092C88.154 94.6092 88.5574 94.7918 88.8492 95.0804L88.8613 95.0957C89.1433 95.3875 89.3171 95.7832 89.3171 96.2171C89.3171 96.6511 89.1378 97.0632 88.8492 97.355C88.5574 97.6458 88.1551 97.8261 87.7113 97.8261C87.2676 97.8261 86.8653 97.6469 86.5735 97.355C86.2816 97.0632 86.1024 96.6609 86.1024 96.2171C86.1024 95.7734 86.2816 95.3711 86.5735 95.0793C86.8653 94.7874 87.2643 94.6082 87.7113 94.6082V94.6092ZM88.5082 95.4214C88.3038 95.217 88.0218 95.0902 87.7113 95.0902C87.4009 95.0902 87.1167 95.217 86.9123 95.4214C86.7079 95.6258 86.5811 95.9078 86.5811 96.2182C86.5811 96.5287 86.7079 96.8129 86.9123 97.0173C87.1167 97.2217 87.3987 97.3463 87.7113 97.3463C88.024 97.3463 88.3038 97.2228 88.5082 97.0173C88.7126 96.8129 88.8394 96.5309 88.8394 96.2182C88.8394 95.9056 88.7159 95.6356 88.5202 95.4345L88.5082 95.4225V95.4214Z" fill="black"/>
<path fill-rule="evenodd" clip-rule="evenodd" d="M94.9781 97.5879C95.7312 97.5879 96.3444 96.9747 96.3444 96.2183C96.3444 95.4619 95.7312 94.8519 94.9781 94.8519C94.2249 94.8519 93.6085 95.4651 93.6085 96.2183C93.6085 96.9714 94.2249 97.5879 94.9781 97.5879Z" fill="white"/>
<path d="M94.978 94.6093C95.4207 94.6093 95.824 94.7918 96.1126 95.0804C96.4066 95.3711 96.587 95.7745 96.587 96.2182C96.587 96.662 96.4077 97.0643 96.1159 97.3561C95.8219 97.6469 95.4218 97.8272 94.978 97.8272C94.5342 97.8272 94.132 97.648 93.8401 97.3561C93.5494 97.0643 93.369 96.6653 93.369 96.2182C93.369 95.7712 93.5483 95.3755 93.8401 95.0837C94.132 94.7918 94.5342 94.6093 94.978 94.6093ZM95.7749 95.4214C95.5737 95.217 95.2884 95.0902 94.978 95.0902C94.6676 95.0902 94.3834 95.217 94.179 95.4214C93.9746 95.6258 93.85 95.9078 93.85 96.2182C93.85 96.5287 93.9768 96.8129 94.179 97.0173C94.3834 97.2217 94.6654 97.3463 94.978 97.3463C95.2906 97.3463 95.5726 97.2228 95.7749 97.0173C95.9793 96.8129 96.1061 96.5309 96.1061 96.2182C96.1061 95.9056 95.9793 95.6258 95.7749 95.4214Z" fill="black"/>
<path fill-rule="evenodd" clip-rule="evenodd" d="M97.5358 88.4641H110.304C110.245 94.1754 110.028 100.486 110.081 103.973H97.5358C100.235 102.439 102.067 99.5314 102.067 96.2183C102.067 92.9052 100.235 90.001 97.5358 88.4641Z" fill="white"/>
<path d="M97.5358 88.2247H110.301C110.434 88.2247 110.542 88.3329 110.542 88.4629V88.4848C110.517 90.8371 110.468 93.2856 110.419 95.5908C110.353 98.8974 110.289 101.922 110.319 103.968C110.323 104.101 110.214 104.21 110.084 104.213H97.5358C97.4025 104.213 97.2943 104.105 97.2943 103.971C97.2943 103.878 97.35 103.794 97.4309 103.755C98.7633 102.995 99.8761 101.892 100.648 100.569C101.398 99.2887 101.828 97.801 101.828 96.2172C101.828 94.6333 101.398 93.1456 100.648 91.8657C99.8728 90.5398 98.7546 89.4325 97.4156 88.6706C97.3008 88.605 97.2604 88.4597 97.326 88.3449C97.373 88.2673 97.4527 88.2236 97.5369 88.2236L97.5358 88.2247ZM110.062 88.7045H98.3633C99.4607 89.4697 100.387 90.4676 101.062 91.6241C101.852 92.9784 102.308 94.5469 102.308 96.2172C102.308 97.8874 101.852 99.4592 101.062 100.81C100.387 101.969 99.4596 102.967 98.3633 103.733H109.839C109.818 101.688 109.877 98.7651 109.942 95.5821C109.989 93.3446 110.038 90.977 110.063 88.7056L110.062 88.7045Z" fill="black"/>
<path fill-rule="evenodd" clip-rule="evenodd" d="M78.4574 83.6228C89.9303 83.6228 100.758 84.2021 110.313 85.2285C110.301 81.9461 110.198 79.1423 109.904 77.6011C108.484 70.1628 102.646 53.7133 78.4574 53.7133C54.269 53.7133 48.4298 70.1628 47.011 77.6011C46.717 79.1412 46.611 81.9461 46.5989 85.2285C56.1534 84.2032 66.9813 83.6228 78.4574 83.6228Z" fill="white"/>
<path d="M78.4575 83.3846C84.1042 83.3846 89.6046 83.5245 94.8797 83.7901C100.207 84.0568 105.299 84.4536 110.074 84.9618C110.065 83.4305 110.037 82.0051 109.975 80.7721C109.909 79.4834 109.814 78.4078 109.668 77.6449L109.665 77.6383C108.961 73.947 107.16 68.0248 102.543 63.0295C97.9228 58.0309 90.4725 53.9526 78.4564 53.9526C66.4403 53.9526 58.9878 58.0309 54.3674 63.0295C49.7492 68.0281 47.9489 73.9536 47.246 77.6449C47.1007 78.4045 47.0012 79.479 46.9356 80.7721C46.8766 82.0051 46.846 83.4316 46.8361 84.9618C51.6117 84.4536 56.7032 84.0568 62.0309 83.7901C67.306 83.5234 72.8063 83.3846 78.4564 83.3846H78.4575ZM94.8578 84.2678C89.6045 84.0043 84.1097 83.8622 78.4575 83.8622C72.8052 83.8622 67.3104 84.0043 62.0571 84.2678C56.6399 84.5399 51.4675 84.9466 46.623 85.4636L46.5978 85.4669C46.4645 85.4669 46.3596 85.3586 46.3596 85.2253C46.3661 83.5791 46.3934 82.0554 46.459 80.7503C46.5246 79.4364 46.6263 78.339 46.7749 77.5585C47.4876 73.8115 49.3196 67.7898 54.0176 62.7081C58.7189 57.6221 66.2807 53.4728 78.4575 53.4728C90.6342 53.4728 98.1961 57.6221 102.894 62.7081C107.589 67.7876 109.421 73.7994 110.137 77.5498L110.14 77.5563C110.289 78.3368 110.388 79.4375 110.453 80.7514C110.518 82.0532 110.546 83.5748 110.555 85.2176L110.552 85.2548C110.54 85.3849 110.422 85.4811 110.289 85.4658C105.445 84.9487 100.272 84.5421 94.8578 84.2699V84.2678Z" fill="black"/>
<path fill-rule="evenodd" clip-rule="evenodd" d="M104.505 65.0254C100.061 59.0529 92.2388 53.7133 78.4575 53.7133C64.6761 53.7133 56.8508 59.0529 52.4064 65.0254C60.4579 64.3499 69.2506 63.975 78.4575 63.975C87.6644 63.975 96.4537 64.3499 104.505 65.0254Z" fill="white"/>
<path d="M103.99 64.7401C101.819 61.9419 98.8705 59.3076 94.8786 57.3455C90.6758 55.2785 85.3088 53.9516 78.4564 53.9516C71.604 53.9516 66.237 55.2774 62.0342 57.3455C58.039 59.3076 55.0954 61.9419 52.9224 64.7401C56.8301 64.4209 60.9181 64.1695 65.1516 63.999C69.4681 63.8252 73.9191 63.7356 78.4564 63.7356C82.9937 63.7356 87.4403 63.8252 91.7579 63.999C95.9914 64.1695 100.082 64.4209 103.99 64.7401ZM95.0863 56.9148C99.3536 59.0124 102.444 61.861 104.688 64.8669C104.728 64.9139 104.75 64.9784 104.744 65.044C104.734 65.1773 104.62 65.2768 104.487 65.2637C100.405 64.9194 96.1411 64.656 91.7404 64.48C87.4512 64.3062 83.0101 64.2165 78.4575 64.2165C73.9049 64.2165 69.4637 64.3062 65.1713 64.48C60.7706 64.6571 56.5087 64.9205 52.425 65.2637C52.3693 65.267 52.3135 65.2517 52.2643 65.2167C52.1594 65.1391 52.1375 64.9871 52.2151 64.8822C54.4592 61.8697 57.5515 59.0157 61.8254 56.9148C66.0894 54.8194 71.5285 53.4717 78.4586 53.4717C85.3886 53.4717 90.8244 54.8194 95.0885 56.9148H95.0863Z" fill="black"/>
<path fill-rule="evenodd" clip-rule="evenodd" d="M94.9781 97.5879C95.7312 97.5879 96.3444 96.9747 96.3444 96.2183C96.3444 95.4619 95.7312 94.8519 94.9781 94.8519C94.2249 94.8519 93.6085 95.4651 93.6085 96.2183C93.6085 96.9714 94.2249 97.5879 94.9781 97.5879Z" fill="white"/>
<path d="M94.978 94.6093C95.4207 94.6093 95.824 94.7918 96.1126 95.0804C96.4066 95.3711 96.587 95.7745 96.587 96.2182C96.587 96.662 96.4077 97.0643 96.1159 97.3561C95.8219 97.6469 95.4218 97.8272 94.978 97.8272C94.5342 97.8272 94.132 97.648 93.8401 97.3561C93.5494 97.0643 93.369 96.6653 93.369 96.2182C93.369 95.7712 93.5483 95.3755 93.8401 95.0837C94.132 94.7918 94.5342 94.6093 94.978 94.6093ZM95.7749 95.4214C95.5737 95.217 95.2884 95.0902 94.978 95.0902C94.6676 95.0902 94.3834 95.217 94.179 95.4214C93.9746 95.6258 93.85 95.9078 93.85 96.2182C93.85 96.5287 93.9768 96.8129 94.179 97.0173C94.3834 97.2217 94.6654 97.3463 94.978 97.3463C95.2906 97.3463 95.5726 97.2228 95.7749 97.0173C95.9793 96.8129 96.1061 96.5309 96.1061 96.2182C96.1061 95.9056 95.9793 95.6258 95.7749 95.4214Z" fill="black"/>
<path fill-rule="evenodd" clip-rule="evenodd" d="M104.347 97.3398C104.963 97.3398 105.466 96.8381 105.466 96.2183C105.466 95.5985 104.964 95.099 104.347 95.099C103.729 95.099 103.225 95.6007 103.225 96.2183C103.225 96.8359 103.727 97.3398 104.347 97.3398Z" fill="white"/>
<path d="M104.347 94.8574C104.722 94.8574 105.063 95.0093 105.308 95.2575C105.556 95.5023 105.708 95.8434 105.708 96.2183C105.708 96.5932 105.556 96.9375 105.308 97.1824C105.063 97.4272 104.722 97.5824 104.347 97.5824C103.972 97.5824 103.628 97.4272 103.383 97.1824C103.135 96.9375 102.983 96.5965 102.983 96.2183C102.983 95.8401 103.135 95.5023 103.383 95.2575C103.628 95.0093 103.969 94.8574 104.347 94.8574ZM104.97 95.5952C104.809 95.4367 104.588 95.3384 104.347 95.3384C104.105 95.3384 103.882 95.4378 103.72 95.5952C103.562 95.7559 103.464 95.9767 103.464 96.2183C103.464 96.4599 103.563 96.6828 103.72 96.8413C103.881 97.002 104.102 97.1015 104.347 97.1015C104.592 97.1015 104.808 97.002 104.97 96.8413C105.128 96.6828 105.227 96.4631 105.227 96.2183C105.227 95.9734 105.127 95.757 104.97 95.5952Z" fill="black"/>
</svg>
