<svg width="98" height="57" viewBox="0 0 98 57" fill="none" xmlns="http://www.w3.org/2000/svg">
<path d="M32.44 42.95C32.44 42.95 24.88 40.93 25.06 36.54C25.06 36.54 21.94 13.34 35.56 6.63997C35.56 6.63997 50.67 -1.20003 64.77 3.13997" fill="#E26996"/>
<path d="M70.06 49.75C70.06 49.75 93.51 51.11 96.2 47.64C96.2 47.64 100.44 31.44 95.88 19.18C93.85 13.72 89.04 9.28997 82.9 7.01997C77.41 4.98997 68.84 2.23997 64.78 3.12997L70.06 49.75Z" fill="#8F294C"/>
<path d="M64.78 3.13C64.78 3.13 78.2 6.93 70.06 49.75C70.06 49.75 42.02 46.71 32.45 42.95C32.45 42.95 25.98 4.81001 64.78 3.14001V3.13Z" fill="#C55A84"/>
<path d="M68.23 2.71999C68.16 3.68999 66.42 4.35999 64.34 4.20999C62.26 4.05999 60.64 3.13999 60.71 2.16999C60.78 1.19999 62.52 0.529992 64.6 0.679992C66.68 0.829992 68.3 1.74999 68.23 2.71999Z" fill="#8F294C"/>
<path d="M24.98 35.8C24.98 35.8 -7.43998 39.79 2.38002 44.18C2.38002 44.18 45.18 62.13 79.1 50.01L24.98 35.8Z" fill="#D55E8E"/>
<path d="M1.11004 41.87C1.11004 41.87 -4.58996 46.71 21.41 54.21C21.41 54.21 64.15 62.08 79.1 50.01C79.1 50.01 33.79 61.27 1.11004 41.87Z" fill="#8F294C"/>
<path d="M32.53 44.18C32.4 45.9 27.32 46.93 21.18 46.48C15.04 46.03 10.16 44.27 10.29 42.55C10.42 40.83 15.5 39.8 21.64 40.25C27.78 40.7 32.66 42.46 32.53 44.18Z" fill="#B13218"/>
</svg>
