<svg width="98" height="57" viewBox="0 0 98 57" fill="none" xmlns="http://www.w3.org/2000/svg">
<path d="M31.92 42.48C31.92 42.48 24.36 40.46 24.54 36.07C24.54 36.07 21.42 12.87 35.04 6.17C35.04 6.17 50.15 -1.67 64.25 2.67" fill="#32506F"/>
<path d="M69.53 49.28C69.53 49.28 92.98 50.64 95.67 47.17C95.67 47.17 99.91 30.97 95.35 18.71C93.32 13.25 88.51 8.82 82.37 6.55C76.88 4.52 68.31 1.77 64.25 2.66L69.53 49.28Z" fill="#32506F"/>
<path d="M64.25 2.66003C64.25 2.66003 77.67 6.46003 69.53 49.28C69.53 49.28 41.49 46.24 31.92 42.48C31.92 42.48 25.45 4.34003 64.25 2.67003V2.66003Z" fill="#3C5B81"/>
<path d="M67.71 2.25002C67.64 3.22002 65.9 3.89002 63.82 3.74002C61.74 3.59002 60.12 2.67001 60.19 1.70001C60.26 0.730012 62 0.0600216 64.08 0.210022C66.16 0.360022 67.78 1.28001 67.71 2.25002Z" fill="#2D4458"/>
<path d="M24.45 35.33C24.45 35.33 -7.97 39.32 1.85 43.71C1.85 43.71 44.65 61.66 78.57 49.54L24.45 35.33Z" fill="#1A8AA6"/>
<path d="M0.58 41.4C0.58 41.4 -5.12 46.24 20.88 53.74C20.88 53.74 63.62 61.61 78.57 49.54C78.57 49.54 33.26 60.8 0.58 41.4Z" fill="#26384C"/>
<path d="M32 43.71C31.87 45.43 26.79 46.46 20.65 46.01C14.51 45.56 9.63 43.8 9.76 42.08C9.89 40.36 14.97 39.33 21.11 39.78C27.25 40.23 32.13 41.99 32 43.71Z" fill="#203822"/>
</svg>
