<svg width="98" height="57" viewBox="0 0 98 57" fill="none" xmlns="http://www.w3.org/2000/svg">
<path d="M31.94 43.1401C31.94 43.1401 24.38 41.1201 24.56 36.7301C24.56 36.7301 21.44 13.53 35.06 6.83003C35.06 6.83003 50.17 -1.00997 64.27 3.33003" fill="#F5C700"/>
<path d="M69.56 49.94C69.56 49.94 93.01 51.3 95.7 47.83C95.7 47.83 99.94 31.63 95.38 19.37C93.35 13.91 88.54 9.48002 82.4 7.21002C76.91 5.18002 68.34 2.43003 64.28 3.32003L69.56 49.94Z" fill="#F5C700"/>
<path d="M64.28 3.32001C64.28 3.32001 77.7 7.12 69.56 49.94C69.56 49.94 41.52 46.9 31.95 43.14C31.95 43.14 25.48 4.99999 64.28 3.32999V3.32001Z" fill="#EDA200"/>
<path d="M67.73 2.89999C67.66 3.86999 65.92 4.54001 63.84 4.39001C61.76 4.24001 60.14 3.32001 60.21 2.35001C60.28 1.38001 62.02 0.709984 64.1 0.859984C66.18 1.00998 67.8 1.92999 67.73 2.89999Z" fill="#F3931D"/>
<path d="M24.48 35.98C24.48 35.98 -7.94 39.97 1.88 44.36C1.88 44.36 44.68 62.31 78.6 50.19L24.48 35.98Z" fill="#E67508"/>
<path d="M0.61 42.06C0.61 42.06 -4.94001 46.77 19.93 54.12C20.62 54.32 21.32 54.48 22.03 54.6C28.88 55.74 65.08 61.11 78.59 50.21C78.59 50.21 33.28 61.47 0.599998 42.07L0.61 42.06Z" fill="#BD6218"/>
<path d="M32.03 44.37C31.9 46.09 26.82 47.12 20.68 46.67C14.54 46.22 9.66 44.46 9.79 42.74C9.92 41.02 15 39.99 21.14 40.44C27.28 40.89 32.16 42.65 32.03 44.37Z" fill="#FCD0A7"/>
</svg>
