<svg width="99" height="57" viewBox="0 0 99 57" fill="none" xmlns="http://www.w3.org/2000/svg">
<path d="M32.71 42.57C32.71 42.57 25.15 40.55 25.33 36.16C25.33 36.16 22.21 12.96 35.83 6.26002C35.83 6.26002 50.94 -1.57998 65.04 2.76002" fill="#956C59"/>
<path d="M70.32 49.37C70.32 49.37 93.77 50.73 96.46 47.26C96.46 47.26 100.7 31.06 96.14 18.8C94.11 13.34 89.3 8.91002 83.16 6.64002C77.67 4.61002 69.1 1.86002 65.04 2.75002L70.32 49.37Z" fill="#775544"/>
<path d="M65.04 2.76007C65.04 2.76007 78.46 6.56007 70.32 49.3801C70.32 49.3801 42.28 46.3401 32.71 42.5801C32.71 42.5801 26.24 4.44007 65.04 2.77007V2.76007Z" fill="#AC846C"/>
<path d="M68.5 2.34004C68.43 3.31004 66.69 3.98005 64.61 3.83005C62.53 3.68005 60.91 2.76005 60.98 1.79005C61.05 0.820046 62.79 0.150048 64.87 0.300048C66.95 0.450048 68.57 1.37004 68.5 2.34004Z" fill="#634135"/>
<path d="M25.25 35.42C25.25 35.42 -7.16997 39.41 2.65003 43.8C2.65003 43.8 45.45 61.7501 79.37 49.6301L25.25 35.42Z" fill="#FCD0A7"/>
<path d="M1.37001 41.4901C1.37001 41.4901 -4.32997 46.33 21.67 53.83C21.67 53.83 64.41 61.7001 79.36 49.6301C79.36 49.6301 34.05 60.8901 1.37001 41.4901Z" fill="#BF8D64"/>
<path d="M32.79 43.8001C32.66 45.5201 27.58 46.5501 21.44 46.1001C15.3 45.6501 10.42 43.89 10.55 42.17C10.68 40.45 15.76 39.42 21.9 39.87C28.04 40.32 32.92 42.0801 32.79 43.8001Z" fill="#9D191B"/>
</svg>
