<svg width="98" height="57" viewBox="0 0 98 57" fill="none" xmlns="http://www.w3.org/2000/svg">
<path d="M31.92 42.77C31.92 42.77 24.36 40.75 24.54 36.36C24.54 36.36 21.42 13.16 35.04 6.46004C35.04 6.46004 50.15 -1.37996 64.25 2.96004" fill="#5A3926"/>
<path d="M69.53 49.57C69.53 49.57 92.98 50.93 95.67 47.46C95.67 47.46 99.91 31.26 95.35 19C93.32 13.54 88.51 9.11002 82.37 6.84002C76.88 4.81002 68.31 2.06004 64.25 2.95004L69.53 49.57Z" fill="#8B5638"/>
<path d="M64.25 2.95996C64.25 2.95996 77.67 6.75996 69.53 49.58C69.53 49.58 41.49 46.54 31.92 42.78C31.92 42.78 25.45 4.63997 64.25 2.96997V2.95996Z" fill="#704B31"/>
<path d="M67.71 2.54001C67.64 3.51001 65.9 4.18 63.82 4.03C61.74 3.88 60.12 2.95999 60.19 1.98999C60.26 1.01999 62 0.35 64.08 0.5C66.16 0.65 67.78 1.57001 67.71 2.54001Z" fill="#5A3926"/>
<path d="M24.45 35.62C24.45 35.62 -7.97 39.61 1.85 44C1.85 44 44.65 61.95 78.57 49.83L24.45 35.62Z" fill="#342218"/>
<path d="M0.58 41.69C0.58 41.69 -5.12 46.53 20.88 54.03C20.88 54.03 63.62 61.9 78.57 49.83C78.57 49.83 33.26 61.09 0.58 41.69Z" fill="#8B5638"/>
<path d="M32 44C31.87 45.72 26.79 46.75 20.65 46.3C14.51 45.85 9.63 44.09 9.76 42.37C9.89 40.65 14.97 39.62 21.11 40.07C27.25 40.52 32.13 42.28 32 44Z" fill="#F3931D"/>
</svg>
