<svg width="98" height="57" viewBox="0 0 98 57" fill="none" xmlns="http://www.w3.org/2000/svg">
<path d="M31.92 43.12C31.92 43.12 24.36 41.1 24.54 36.71C24.54 36.71 21.42 13.51 35.04 6.81001C35.04 6.81001 50.15 -1.02999 64.25 3.31001" fill="#2A3C45"/>
<path d="M69.53 49.93C69.53 49.93 92.98 51.29 95.67 47.82C95.67 47.82 99.91 31.62 95.35 19.36C93.32 13.9 88.51 9.47004 82.37 7.20004C76.88 5.17004 68.31 2.42002 64.25 3.31002L69.53 49.93Z" fill="#375063"/>
<path d="M64.25 3.31006C64.25 3.31006 77.67 7.11005 69.53 49.9301C69.53 49.9301 41.49 46.8901 31.92 43.1301C31.92 43.1301 25.45 4.99007 64.25 3.32007V3.31006Z" fill="#5D85A8"/>
<path d="M67.71 2.89004C67.64 3.86004 65.9 4.53004 63.82 4.38004C61.74 4.23004 60.12 3.31003 60.19 2.34003C60.26 1.37003 62 0.700036 64.08 0.850036C66.16 1.00004 67.78 1.92004 67.71 2.89004Z" fill="#2A3C45"/>
<path d="M24.45 35.97C24.45 35.97 -7.97 39.96 1.85 44.35C1.85 44.35 44.65 62.3 78.57 50.18L24.45 35.97Z" fill="#374D60"/>
<path d="M0.58 42.04C0.58 42.04 -5.12 46.88 20.88 54.38C20.88 54.38 63.62 62.25 78.57 50.18C78.57 50.18 33.26 61.44 0.58 42.04Z" fill="#56799B"/>
<path d="M32 44.35C31.87 46.07 26.79 47.1 20.65 46.65C14.51 46.2 9.63 44.44 9.76 42.72C9.89 41 14.97 39.97 21.11 40.42C27.25 40.87 32.13 42.63 32 44.35Z" fill="#A0AB20"/>
</svg>
