<svg width="99" height="57" viewBox="0 0 99 57" fill="none" xmlns="http://www.w3.org/2000/svg">
<path d="M32.71 42.77C32.71 42.77 25.15 40.75 25.33 36.36C25.33 36.36 22.21 13.16 35.83 6.46004C35.83 6.46004 50.94 -1.37996 65.04 2.96004" fill="#8E2314"/>
<path d="M70.32 49.57C70.32 49.57 93.77 50.93 96.46 47.46C96.46 47.46 100.7 31.26 96.14 19C94.11 13.54 89.3 9.11002 83.16 6.84002C77.67 4.81002 69.1 2.06004 65.04 2.95004L70.32 49.57Z" fill="#922915"/>
<path d="M65.04 2.95996C65.04 2.95996 78.46 6.75996 70.32 49.58C70.32 49.58 42.28 46.54 32.71 42.78C32.71 42.78 26.24 4.63997 65.04 2.96997V2.95996Z" fill="#B13218"/>
<path d="M68.5 2.54001C68.43 3.51001 66.69 4.18 64.61 4.03C62.53 3.88 60.91 2.95999 60.98 1.98999C61.05 1.01999 62.79 0.35 64.87 0.5C66.95 0.65 68.57 1.57001 68.5 2.54001Z" fill="#922915"/>
<path d="M25.25 35.62C25.25 35.62 -7.16997 39.61 2.65003 44C2.65003 44 45.45 61.95 79.37 49.83L25.25 35.62Z" fill="#A12C17"/>
<path d="M1.37004 41.69C1.37004 41.69 -4.17996 46.4 20.69 53.75C21.38 53.95 22.0801 54.11 22.7901 54.23C29.6401 55.37 65.84 60.74 79.35 49.84C79.35 49.84 34.04 61.1 1.36003 41.7L1.37004 41.69Z" fill="#6D1B10"/>
<path d="M32.79 44C32.66 45.72 27.58 46.75 21.44 46.3C15.3 45.85 10.42 44.09 10.55 42.37C10.68 40.65 15.76 39.62 21.9 40.07C28.04 40.52 32.92 42.28 32.79 44Z" fill="#418258"/>
</svg>
