<svg width="99" height="57" viewBox="0 0 99 57" fill="none" xmlns="http://www.w3.org/2000/svg">
<path d="M32.71 42.6701C32.71 42.6701 25.15 40.6501 25.33 36.2601C25.33 36.2601 22.21 13.0601 35.83 6.36006C35.83 6.36006 50.94 -1.47994 65.04 2.86006" fill="#96B2CF"/>
<path d="M70.32 49.4701C70.32 49.4701 93.77 50.83 96.46 47.36C96.46 47.36 100.7 31.16 96.14 18.9C94.11 13.44 89.3 9.01006 83.16 6.74006C77.67 4.71006 69.1 1.96006 65.04 2.85006L70.32 49.4701Z" fill="#4A6D8A"/>
<path d="M65.04 2.86005C65.04 2.86005 78.46 6.66006 70.32 49.4801C70.32 49.4801 42.28 46.44 32.71 42.68C32.71 42.68 26.24 4.54004 65.04 2.87004V2.86005Z" fill="#56799B"/>
<path d="M68.5 2.44003C68.43 3.41003 66.69 4.08002 64.61 3.93002C62.53 3.78002 60.91 2.86003 60.98 1.89003C61.05 0.920029 62.79 0.250024 64.87 0.400024C66.95 0.550024 68.57 1.47003 68.5 2.44003Z" fill="#4A6D8A"/>
<path d="M25.25 35.52C25.25 35.52 -7.16997 39.51 2.65003 43.9C2.65003 43.9 45.45 61.85 79.37 49.73L25.25 35.52Z" fill="#B5CDEC"/>
<path d="M1.37001 41.59C1.37001 41.59 -4.32997 46.43 21.67 53.93C21.67 53.93 64.41 61.8 79.36 49.73C79.36 49.73 34.05 60.99 1.37001 41.59Z" fill="#56799B"/>
<path d="M32.79 43.9C32.66 45.62 27.58 46.65 21.44 46.2C15.3 45.75 10.42 43.99 10.55 42.27C10.68 40.55 15.76 39.52 21.9 39.97C28.04 40.42 32.92 42.18 32.79 43.9Z" fill="#F3931D"/>
</svg>
