<svg width="98" height="57" viewBox="0 0 98 57" fill="none" xmlns="http://www.w3.org/2000/svg">
<path d="M32.18 43.18C32.18 43.18 24.62 41.16 24.8 36.77C24.8 36.77 21.68 13.57 35.3 6.87001C35.3 6.87001 50.41 -0.96999 64.51 3.37001" fill="#8F4479"/>
<path d="M69.79 49.99C69.79 49.99 93.24 51.35 95.93 47.88C95.93 47.88 100.17 31.68 95.61 19.42C93.58 13.96 88.77 9.53002 82.63 7.26002C77.14 5.23002 68.57 2.48002 64.51 3.37002L69.79 49.99Z" fill="#622954"/>
<path d="M64.51 3.37006C64.51 3.37006 77.93 7.17006 69.79 49.9901C69.79 49.9901 41.75 46.9501 32.18 43.1901C32.18 43.1901 25.71 5.05005 64.51 3.38005V3.37006Z" fill="#7A3968"/>
<path d="M67.97 2.95003C67.9 3.92003 66.16 4.59003 64.08 4.44003C62 4.29003 60.38 3.37003 60.45 2.40003C60.52 1.43003 62.26 0.760034 64.34 0.910034C66.42 1.06003 68.04 1.98003 67.97 2.95003Z" fill="#622954"/>
<path d="M24.72 36.03C24.72 36.03 -7.69999 40.02 2.12 44.41C2.12 44.41 44.92 62.36 78.84 50.24L24.72 36.03Z" fill="#B66CA2"/>
<path d="M0.849997 42.1C0.849997 42.1 -4.85001 46.94 21.15 54.44C21.15 54.44 63.89 62.31 78.84 50.24C78.84 50.24 33.53 61.5 0.849997 42.1Z" fill="#7A3968"/>
<path d="M32.27 44.41C32.14 46.13 27.06 47.16 20.92 46.71C14.78 46.26 9.9 44.5 10.03 42.78C10.16 41.06 15.24 40.03 21.38 40.48C27.52 40.93 32.4 42.69 32.27 44.41Z" fill="#9D191B"/>
</svg>
