<svg width="99" height="57" viewBox="0 0 99 57" fill="none" xmlns="http://www.w3.org/2000/svg">
<path d="M32.71 42.87C32.71 42.87 25.15 40.85 25.33 36.46C25.33 36.46 22.21 13.26 35.83 6.56001C35.83 6.56001 50.94 -1.27999 65.04 3.06001" fill="#AA1F17"/>
<path d="M70.32 49.67C70.32 49.67 93.77 51.03 96.46 47.56C96.46 47.56 100.7 31.36 96.14 19.1C94.11 13.64 89.3 9.21003 83.16 6.94003C77.67 4.91003 69.1 2.16001 65.04 3.05001L70.32 49.67Z" fill="#7F1B13"/>
<path d="M65.04 3.06006C65.04 3.06006 78.46 6.86005 70.32 49.6801C70.32 49.6801 42.28 46.6401 32.71 42.8801C32.71 42.8801 26.24 4.74007 65.04 3.07007V3.06006Z" fill="#9C1E17"/>
<path d="M68.5 2.64004C68.43 3.61004 66.69 4.28004 64.61 4.13004C62.53 3.98004 60.91 3.06003 60.98 2.09003C61.05 1.12003 62.79 0.450036 64.87 0.600036C66.95 0.750036 68.57 1.67004 68.5 2.64004Z" fill="#7F1B13"/>
<path d="M25.25 35.72C25.25 35.72 -7.16997 39.71 2.65003 44.1C2.65003 44.1 45.45 62.05 79.37 49.93L25.25 35.72Z" fill="#7F1B13"/>
<path d="M1.37001 41.79C1.37001 41.79 -4.32997 46.63 21.67 54.13C21.67 54.13 64.41 62 79.36 49.93C79.36 49.93 34.05 61.19 1.37001 41.79Z" fill="#AA1F17"/>
<path d="M32.79 44.1C32.66 45.82 27.58 46.85 21.44 46.4C15.3 45.95 10.42 44.19 10.55 42.47C10.68 40.75 15.76 39.72 21.9 40.17C28.04 40.62 32.92 42.38 32.79 44.1Z" fill="#F5C700"/>
</svg>
