<svg width="98" height="57" viewBox="0 0 98 57" fill="none" xmlns="http://www.w3.org/2000/svg">
<path d="M32.44 42.59C32.44 42.59 24.88 40.57 25.06 36.18C25.06 36.18 21.94 12.98 35.56 6.27998C35.56 6.27998 50.67 -1.56002 64.77 2.77998" fill="#BF8D64"/>
<path d="M70.06 49.39C70.06 49.39 93.51 50.75 96.2 47.28C96.2 47.28 100.44 31.08 95.88 18.82C93.85 13.36 89.04 8.92999 82.9 6.65999C77.41 4.62999 68.84 1.87998 64.78 2.76998L70.06 49.39Z" fill="#BF8D64"/>
<path d="M64.78 2.77002C64.78 2.77002 78.2 6.57002 70.06 49.39C70.06 49.39 42.02 46.35 32.45 42.59C32.45 42.59 25.98 4.45002 64.78 2.78002V2.77002Z" fill="#E6BB96"/>
<path d="M68.23 2.36001C68.16 3.33001 66.42 4.00001 64.34 3.85001C62.26 3.70001 60.64 2.78 60.71 1.81C60.78 0.840005 62.52 0.170007 64.6 0.320007C66.68 0.470007 68.3 1.39001 68.23 2.36001Z" fill="#B07E59"/>
<path d="M24.98 35.43C24.98 35.43 -7.43998 39.42 2.38002 43.81C2.38002 43.81 45.18 61.76 79.1 49.64L24.98 35.43Z" fill="#FCD0A7"/>
<path d="M1.11004 41.51C1.11004 41.51 -4.58996 46.35 21.41 53.85C21.41 53.85 64.15 61.72 79.1 49.65C79.1 49.65 33.79 60.91 1.11004 41.51Z" fill="#BF8D64"/>
<path d="M32.53 43.82C32.4 45.54 27.32 46.57 21.18 46.12C15.04 45.67 10.16 43.91 10.29 42.19C10.42 40.47 15.5 39.44 21.64 39.89C27.78 40.34 32.66 42.1 32.53 43.82Z" fill="#C55A84"/>
</svg>
