<svg width="99" height="57" viewBox="0 0 99 57" fill="none" xmlns="http://www.w3.org/2000/svg">
<path d="M32.75 42.87C32.75 42.87 25.19 40.85 25.37 36.46C25.37 36.46 22.25 13.26 35.87 6.56001C35.87 6.56001 50.98 -1.27999 65.08 3.06001" fill="#AB695D"/>
<path d="M70.36 49.67C70.36 49.67 93.81 51.03 96.5 47.56C96.5 47.56 100.74 31.36 96.18 19.1C94.15 13.64 89.34 9.21003 83.2 6.94003C77.71 4.91003 69.14 2.16001 65.08 3.05001L70.36 49.67Z" fill="#F3B8AA"/>
<path d="M65.08 3.05005C65.08 3.05005 78.5 6.85007 70.36 49.6701C70.36 49.6701 42.32 46.6301 32.75 42.8701C32.75 42.8701 26.28 4.73006 65.08 3.06006V3.05005Z" fill="#D1887B"/>
<path d="M68.54 2.63004C68.47 3.60004 66.73 4.27003 64.65 4.12003C62.57 3.97003 60.95 3.05002 61.02 2.08002C61.09 1.11002 62.83 0.440027 64.91 0.590027C66.99 0.740027 68.61 1.66004 68.54 2.63004Z" fill="#AB695D"/>
<path d="M25.29 35.71C25.29 35.71 -7.12999 39.7 2.69001 44.09C2.69001 44.09 45.49 62.04 79.41 49.92L25.29 35.71Z" fill="#AB695D"/>
<path d="M1.41999 41.78C1.41999 41.78 -4.13 46.49 20.74 53.84C21.43 54.04 22.13 54.2 22.84 54.32C29.69 55.46 65.89 60.83 79.4 49.93C79.4 49.93 34.09 61.19 1.41 41.79L1.41999 41.78Z" fill="#8F4C44"/>
<path d="M32.84 44.1C32.71 45.82 27.63 46.85 21.49 46.4C15.35 45.95 10.47 44.19 10.6 42.47C10.73 40.75 15.81 39.72 21.95 40.17C28.09 40.62 32.97 42.38 32.84 44.1Z" fill="#F7EBBD"/>
</svg>
