<svg width="98" height="57" viewBox="0 0 98 57" fill="none" xmlns="http://www.w3.org/2000/svg">
<path d="M32.18 42.87C32.18 42.87 24.62 40.85 24.8 36.46C24.8 36.46 21.68 13.26 35.3 6.56001C35.3 6.56001 50.41 -1.27999 64.51 3.06001" fill="#418258"/>
<path d="M69.79 49.67C69.79 49.67 93.24 51.03 95.93 47.56C95.93 47.56 100.17 31.36 95.61 19.1C93.58 13.64 88.77 9.21001 82.63 6.94001C77.14 4.91001 68.57 2.16001 64.51 3.05001L69.79 49.67Z" fill="#2C603B"/>
<path d="M64.51 3.05005C64.51 3.05005 77.93 6.85005 69.79 49.67C69.79 49.67 41.75 46.63 32.18 42.87C32.18 42.87 25.71 4.73005 64.51 3.06005V3.05005Z" fill="#26532F"/>
<path d="M67.97 2.63003C67.9 3.60003 66.16 4.27003 64.08 4.12003C62 3.97003 60.38 3.05003 60.45 2.08003C60.52 1.11003 62.26 0.440026 64.34 0.590026C66.42 0.740026 68.04 1.66003 67.97 2.63003Z" fill="#418258"/>
<path d="M24.72 35.71C24.72 35.71 -7.69999 39.7 2.12 44.09C2.12 44.09 44.92 62.04 78.84 49.92L24.72 35.71Z" fill="#26492E"/>
<path d="M0.849997 41.78C0.849997 41.78 -4.85001 46.62 21.15 54.12C21.15 54.12 63.89 61.99 78.84 49.92C78.84 49.92 33.53 61.18 0.849997 41.78Z" fill="#213B24"/>
<path d="M32.27 44.1C32.14 45.82 27.06 46.85 20.92 46.4C14.78 45.95 9.9 44.19 10.03 42.47C10.16 40.75 15.24 39.72 21.38 40.17C27.52 40.62 32.4 42.38 32.27 44.1Z" fill="#F3931D"/>
</svg>
