<svg width="201" height="101" viewBox="0 0 201 101" fill="none" xmlns="http://www.w3.org/2000/svg">
<path fill-rule="evenodd" clip-rule="evenodd" d="M51.1148 72.0041L11.1895 77.6946C4.61032 78.6302 -2.006 85.7549 0.974787 92.7713C5.07816 102.437 19.6433 100.718 39.5065 100.054C59.3686 99.3909 91.86 95.8307 95.783 93.8315C99.7038 91.8323 97.8533 92.7472 98.7332 92.2444C76.0444 88.5848 56.4862 82.6374 51.4373 73.0174C51.2733 72.7015 51.1673 72.3571 51.1148 72.0041Z" fill="white"/>
<path d="M50.9203 72.274L11.2234 77.9296C10.2254 78.0717 9.22745 78.3602 8.26337 78.769C5.96028 79.7451 3.85612 81.4154 2.41546 83.4703L2.40563 83.4802C0.97699 85.522 0.208568 87.9431 0.564908 90.4342C0.669842 91.1775 0.87534 91.9285 1.19452 92.6783C4.80819 101.189 16.8166 100.708 33.487 100.042C35.4239 99.9647 37.4264 99.8838 39.4988 99.816C49.4687 99.4848 62.6336 98.418 73.7599 97.1883C84.7551 95.9739 93.7455 94.601 95.6737 93.6184C98.2031 92.3296 98.2031 92.4685 98.2085 92.4127V92.4029C86.1804 90.4408 75.0552 87.8317 66.5358 84.3666C59.0702 81.3323 53.5906 77.6323 51.2263 73.1288C51.14 72.9649 51.0678 72.7878 51.0099 72.6085C50.976 72.497 50.9443 72.3855 50.9203 72.274ZM11.1556 77.4563L51.0788 71.769C51.2089 71.7505 51.3324 71.8401 51.351 71.9702C51.3761 72.1407 51.4165 72.3047 51.4657 72.4631C51.5149 72.6151 51.5772 72.7637 51.6516 72.9058C53.9546 77.3 59.35 80.9268 66.7162 83.9229C75.3197 87.4185 86.5903 90.044 98.7671 92.0083C98.8381 92.0181 98.9037 92.0574 98.9409 92.1263C99.0065 92.2411 98.966 92.3865 98.8513 92.452C98.7518 92.5111 98.7146 92.4859 98.6993 92.4641L98.696 92.4794H98.684C98.6589 92.5821 98.4643 92.733 95.8912 94.0446C93.9139 95.0514 84.8611 96.4428 73.8135 97.6649C62.6784 98.8957 49.5015 99.9614 39.513 100.293C37.4614 100.36 35.4534 100.441 33.5066 100.519C16.6472 101.194 4.49557 101.678 0.7551 92.8641C0.417343 92.0771 0.203094 91.2868 0.0916015 90.5031C-0.28332 87.8809 0.518989 85.346 2.01649 83.2113L2.02305 83.196C3.51728 81.0699 5.69576 79.3407 8.07536 78.3307C9.07989 77.9033 10.1172 77.606 11.1556 77.4563Z" fill="black"/>
<path fill-rule="evenodd" clip-rule="evenodd" d="M51.1148 72.0041L11.1895 77.6946C7.83049 78.1722 4.46166 80.2666 2.36298 83.1337C1.06441 85.5756 0.696052 88.411 1.9017 91.2497C3.86376 95.8701 8.00429 97.7207 13.9604 98.3251C27.9189 99.7352 86.5947 95.8701 95.5196 91.7055C74.219 88.0088 56.2479 82.1816 51.4384 73.0174C51.2744 72.7015 51.1684 72.3571 51.1159 72.0041H51.1148Z" fill="white"/>
<path d="M50.9203 72.274L11.2234 77.9296C9.58049 78.1646 7.93215 78.7942 6.44121 79.7113C4.94152 80.6382 3.59594 81.8559 2.56409 83.2626C1.91044 84.4956 1.49835 85.8346 1.42075 87.2206C1.34642 88.5039 1.55738 89.8298 2.12141 91.1535C3.07893 93.4129 4.56987 94.9934 6.54723 96.0843C8.54317 97.1818 11.0375 97.7884 13.9823 98.0868C21.4599 98.8432 41.8248 98.0803 60.4693 96.5653C75.6706 95.3323 89.7154 93.6019 94.6615 91.7984C83.5603 89.8331 73.3981 87.2829 65.5859 83.9699C58.6067 81.0098 53.49 77.4399 51.2274 73.1288C51.141 72.9649 51.0689 72.7878 51.011 72.6085C50.9771 72.497 50.9454 72.3855 50.9214 72.274H50.9203ZM11.1556 77.4563L51.0788 71.769C51.2088 71.7505 51.3323 71.8401 51.3509 71.9702C51.3761 72.1407 51.4165 72.3047 51.4657 72.4631C51.5149 72.6151 51.5772 72.7637 51.6515 72.9058C53.8551 77.1087 58.8909 80.613 65.7707 83.5294C73.738 86.9069 84.1702 89.492 95.5589 91.4694C95.6332 91.4814 95.701 91.5317 95.736 91.606C95.7917 91.7241 95.7425 91.8662 95.6212 91.9219C91.4555 93.8654 76.6204 95.7367 60.5054 97.0451C41.8423 98.5579 21.4446 99.3198 13.9353 98.5601C10.9261 98.2562 8.37265 97.6332 6.31769 96.5019C4.24414 95.3618 2.68215 93.7036 1.6809 91.3415C1.08627 89.9435 0.865469 88.5465 0.943076 87.1944C1.02396 85.7352 1.45791 84.3306 2.14545 83.032L2.17059 82.9883C3.23961 81.5258 4.63436 80.2611 6.1898 79.3036C7.73648 78.3493 9.44714 77.6978 11.1545 77.453L11.1556 77.4563Z" fill="black"/>
<path fill-rule="evenodd" clip-rule="evenodd" d="M51.1028 70.9635C51.9051 64.4958 56.5233 30.3495 65.8548 18.6198C76.1843 5.64402 88.3665 -1.10893 134.447 4.58376C134.447 4.58376 166.888 11.8669 179.468 22.8587C192.047 33.8484 201.58 53.0471 200.124 58.4763C198.667 63.9056 193.901 75.0286 190.988 84.5612C188.075 94.0939 188.208 97.6704 185.692 97.9338C183.206 98.1973 64.9968 98.8542 51.4384 73.0174C51.1126 72.3943 51.0164 71.6598 51.1039 70.9624L51.1028 70.9635Z" fill="white"/>
<path d="M50.8645 70.9318C51.3761 66.8065 53.4398 51.426 57.2884 37.7681C59.4822 29.9833 62.263 22.7527 65.669 18.47C70.8632 11.9466 76.5253 6.9852 86.6876 4.36949C96.8126 1.76362 111.406 1.49692 134.475 4.34763L134.516 4.35417C135.201 4.50939 167.119 11.7521 179.623 22.6795C185.478 27.7895 190.672 34.6726 194.413 41.1249C198.761 48.6212 201.153 55.5698 200.357 58.5386C199.651 61.1729 198.166 65.1429 196.492 69.6212C194.713 74.3815 192.717 79.7179 191.216 84.6334C190.34 87.5005 189.739 89.8276 189.261 91.6837C188.114 96.1215 187.637 97.9721 185.715 98.1732C184.07 98.347 131.747 98.6935 92.5967 91.4268C72.5018 87.6983 55.8565 81.9532 51.2263 73.1299C51.0558 72.8042 50.9443 72.4511 50.8853 72.0882C50.8197 71.7035 50.8175 71.3133 50.8634 70.9318H50.8645ZM57.7508 37.8982C53.9109 51.5189 51.8537 66.8754 51.3422 70.9908C51.2984 71.3286 51.3017 71.6761 51.3575 72.0106C51.4067 72.3232 51.5028 72.6271 51.6515 72.9059C56.1976 81.5772 72.7192 87.2513 92.6808 90.9546C131.789 98.2158 184.024 97.8682 185.667 97.6977C187.26 97.5304 187.712 95.7728 188.797 91.5645C189.277 89.6986 189.882 87.3617 190.76 84.4924C192.262 79.5681 194.262 74.2219 196.043 69.455C197.71 64.9921 199.189 61.0373 199.892 58.4129C200.657 55.5589 198.286 48.7556 194 41.3643C190.282 34.9491 185.121 28.1131 179.311 23.0358C166.899 12.1915 135.111 4.97722 134.411 4.81873C111.406 1.97675 96.8716 2.24019 86.8056 4.83076C76.7734 7.41258 71.1802 12.315 66.045 18.7674C62.6827 22.9888 59.9304 30.1626 57.7519 37.8949L57.7508 37.8982Z" fill="black"/>
<path d="M128.565 3.98258C128.695 3.98258 128.8 4.09407 128.798 4.22414C128.798 4.3575 128.687 4.46242 128.556 4.45914C128.491 4.45914 105.834 3.86672 98.0894 19.4866C94.7425 26.2396 91.625 37.108 89.0618 48.5622C85.6525 63.7788 83.2226 80.0239 82.5231 89.021C82.5143 89.151 82.3995 89.2505 82.2695 89.2407C82.1361 89.2308 82.0367 89.1171 82.0465 88.9838C82.7472 79.9747 85.1792 63.7044 88.5951 48.4594C91.167 36.9713 94.2976 26.0625 97.6631 19.2757C105.544 3.38029 128.502 3.9782 128.567 3.98148L128.565 3.98258Z" fill="black"/>
<path d="M136.982 5.76428C136.852 5.7304 136.774 5.6003 136.805 5.47242C136.839 5.34562 136.969 5.26475 137.096 5.29864C137.171 5.31722 162.453 11.4909 168.751 32.3575C170.418 37.8829 170.527 47.1959 169.87 57.3111C168.897 72.2424 166.259 88.9433 164.508 97.7983C164.48 97.9251 164.356 98.0125 164.226 97.9874C164.096 97.959 164.012 97.8354 164.037 97.7054C165.785 88.8635 168.423 72.1877 169.392 57.2838C170.046 47.2144 169.941 37.9606 168.292 32.4941C162.075 11.8909 137.053 5.77959 136.982 5.76428Z" fill="black"/>
<path fill-rule="evenodd" clip-rule="evenodd" d="M77.1659 19.1893C77.9037 18.1104 79.0252 17.4721 79.6668 17.7672C80.3117 18.059 80.2309 19.1707 79.493 20.2528C78.7552 21.3317 77.6337 21.9668 76.9888 21.6749C76.3472 21.3809 76.4248 20.2681 77.1659 19.1893ZM179.021 28.2475C178.42 27.1566 177.388 26.4134 176.716 26.5861C176.044 26.7631 175.988 27.7884 176.592 28.8793C177.194 29.9702 178.225 30.7113 178.898 30.5375C179.567 30.3637 179.622 29.3384 179.021 28.2475ZM178.228 28.4519C178.017 28.0737 177.66 27.8168 177.429 27.8781C177.196 27.9371 177.174 28.2934 177.385 28.6716C177.592 29.0498 177.952 29.3067 178.184 29.2477C178.417 29.1854 178.435 28.8291 178.228 28.4508V28.4519ZM130.514 26.0909C130.656 24.8514 129.695 23.7233 128.373 23.5648C127.047 23.4096 125.86 24.2874 125.717 25.5269C125.575 26.7632 126.535 27.8945 127.858 28.0497C129.184 28.2049 130.374 27.3272 130.514 26.0909ZM128.949 25.9051C128.996 25.4777 128.664 25.0842 128.206 25.0306C127.746 24.9749 127.331 25.282 127.285 25.7094C127.236 26.1401 127.567 26.5303 128.026 26.5861C128.488 26.6385 128.901 26.3347 128.95 25.904L128.949 25.9051ZM77.9256 19.5369C78.1824 19.162 78.5705 18.9423 78.7935 19.0439C79.0165 19.1434 78.9891 19.5303 78.7345 19.9052C78.4776 20.2769 78.0863 20.4999 77.8666 20.3982C77.6436 20.2955 77.6687 19.9118 77.9256 19.5369Z" fill="white"/>
<path d="M76.9681 19.0526C77.3583 18.4821 77.8513 18.0296 78.3344 17.7541C78.8514 17.4601 79.3695 17.3671 79.7663 17.5497C79.8155 17.5715 79.8625 17.5967 79.9062 17.6273C80.1817 17.8164 80.3282 18.1356 80.3435 18.5291C80.3555 18.8822 80.2593 19.3008 80.0614 19.7347C79.9652 19.949 79.8417 20.172 79.6931 20.3851C79.3029 20.9557 78.8066 21.4104 78.3268 21.6837C77.8097 21.9777 77.2883 22.0706 76.8915 21.8914C76.8424 21.8695 76.7954 21.8422 76.7549 21.8137C76.4762 21.6246 76.333 21.3022 76.3177 20.9087C76.3057 20.5589 76.3986 20.1403 76.5964 19.7063C76.6926 19.4921 76.8161 19.2724 76.9681 19.0526ZM78.5705 18.1695C78.1486 18.411 77.7124 18.8144 77.3616 19.3227C77.2315 19.5183 77.12 19.7129 77.0326 19.9052C76.8653 20.2714 76.7844 20.6114 76.7943 20.8934C76.803 21.1317 76.8784 21.3208 77.0238 21.417L77.0894 21.4574C77.3375 21.5689 77.7026 21.488 78.0906 21.2683C78.5126 21.03 78.9487 20.6234 79.2963 20.1151C79.4329 19.9195 79.5411 19.7216 79.6275 19.5358C79.7947 19.1696 79.8724 18.8264 79.8625 18.5477C79.8538 18.3061 79.7783 18.1203 79.6362 18.0208L79.5685 17.9837C79.3203 17.8689 78.9575 17.9498 78.5705 18.1695ZM178.811 28.3623C178.529 27.8475 178.144 27.4168 177.754 27.1348C177.395 26.8779 177.038 26.75 176.775 26.8189C176.741 26.8276 176.707 26.8408 176.675 26.8593C176.554 26.9249 176.474 27.0572 176.437 27.231C176.393 27.4387 176.409 27.6988 176.484 27.9907C176.55 28.2322 176.655 28.4957 176.8 28.7656C177.085 29.2772 177.469 29.7111 177.857 29.9899C178.22 30.25 178.573 30.3747 178.836 30.3058C178.874 30.297 178.907 30.2839 178.939 30.2653C179.06 30.1997 179.14 30.0697 179.174 29.8937C179.221 29.6893 179.205 29.4259 179.127 29.134C179.065 28.8925 178.96 28.629 178.811 28.3623ZM178.033 26.7479C178.479 27.0703 178.913 27.5534 179.232 28.1306C179.396 28.4344 179.517 28.7318 179.592 29.0138C179.685 29.38 179.703 29.7177 179.644 29.9964C179.576 30.3069 179.418 30.5484 179.167 30.6873C179.104 30.7212 179.033 30.7496 178.956 30.7714C178.547 30.8764 178.05 30.719 177.576 30.3779C177.133 30.0587 176.696 29.5723 176.38 28.9952C176.213 28.6946 176.095 28.394 176.021 28.112C175.924 27.7458 175.909 27.4113 175.968 27.1326C176.034 26.82 176.194 26.5773 176.443 26.4418C176.508 26.4046 176.579 26.3762 176.657 26.3576C177.062 26.2494 177.562 26.4068 178.033 26.7479ZM178.018 28.57C177.931 28.4115 177.813 28.2781 177.699 28.1951C177.609 28.1328 177.535 28.0989 177.488 28.1087L177.484 28.1339C177.476 28.183 177.478 28.2486 177.5 28.3262C177.518 28.3973 177.549 28.4749 177.596 28.5591C177.682 28.7176 177.797 28.8476 177.915 28.9307C178.001 28.9963 178.079 29.0269 178.123 29.0171L178.129 28.9919C178.139 28.9449 178.132 28.8771 178.114 28.7995C178.095 28.7285 178.065 28.6509 178.018 28.57ZM177.977 27.8081C178.148 27.9316 178.315 28.1186 178.439 28.3383C178.501 28.453 178.547 28.5711 178.575 28.6793C178.616 28.8312 178.622 28.9733 178.597 29.0914C178.563 29.2466 178.482 29.3646 178.352 29.4357C178.318 29.4543 178.284 29.4696 178.244 29.4794C178.055 29.5286 177.838 29.4641 177.636 29.3187C177.462 29.1974 177.295 29.0083 177.175 28.7886C177.113 28.6738 177.063 28.5558 177.035 28.4476C176.998 28.2956 176.991 28.1535 177.016 28.0355C177.047 27.8836 177.131 27.7622 177.258 27.6912C177.292 27.6726 177.329 27.6573 177.366 27.6474C177.555 27.5983 177.775 27.6627 177.977 27.8081ZM130.279 26.0636C130.341 25.5116 130.158 24.9847 129.811 24.5792C129.461 24.1671 128.943 23.8753 128.345 23.8042L128.327 23.801C127.734 23.7354 127.17 23.9004 126.743 24.2163C126.316 24.5289 126.021 25 125.956 25.5455V25.552C125.89 26.104 126.074 26.6309 126.421 27.0397C126.77 27.4518 127.288 27.7436 127.886 27.8114L127.905 27.8147C128.497 27.8803 129.061 27.7185 129.489 27.4026C129.916 27.0867 130.214 26.6189 130.276 26.0702L130.279 26.0636ZM130.176 24.2688C130.604 24.7738 130.83 25.4307 130.752 26.1193V26.1259C130.672 26.8113 130.303 27.3939 129.773 27.7841C129.249 28.171 128.571 28.37 127.851 28.2923L127.83 28.2891C127.105 28.2027 126.479 27.8486 126.053 27.3501C125.626 26.8451 125.4 26.1882 125.477 25.4996V25.493C125.558 24.8077 125.926 24.2229 126.457 23.8316C126.98 23.4446 127.662 23.2457 128.378 23.3265H128.4C129.125 23.4129 129.751 23.7671 130.176 24.2688ZM128.711 25.8767C128.726 25.7313 128.677 25.5914 128.584 25.4799C128.491 25.3684 128.349 25.2908 128.187 25.2689L128.162 25.2656C128.001 25.2503 127.849 25.2963 127.731 25.3804C127.62 25.4646 127.539 25.5914 127.523 25.7335L127.52 25.7368C127.505 25.8821 127.554 26.0253 127.647 26.1335C127.74 26.245 127.882 26.3259 128.047 26.3445L128.069 26.3478C128.23 26.3631 128.385 26.3194 128.5 26.233L128.506 26.2297C128.618 26.1456 128.692 26.0221 128.711 25.88V25.8767ZM128.949 25.1727C129.126 25.3771 129.216 25.6471 129.187 25.9259L129.184 25.9346C129.153 26.2133 129.005 26.4494 128.794 26.6101L128.782 26.62C128.574 26.7719 128.302 26.8528 128.016 26.8244L127.998 26.8211C127.706 26.7872 127.456 26.644 127.282 26.4429C127.108 26.2352 127.015 25.9685 127.047 25.6865V25.6766C127.081 25.3946 127.233 25.1563 127.45 24.9946C127.658 24.8394 127.93 24.7596 128.215 24.7869L128.234 24.7902C128.526 24.824 128.779 24.9673 128.95 25.1717L128.949 25.1727ZM77.7267 19.3992C77.8753 19.1827 78.0677 19.0089 78.2535 18.9007C78.4732 18.7772 78.706 18.74 78.8886 18.8231C78.917 18.8351 78.941 18.8482 78.9629 18.8636C79.1028 18.9597 79.1771 19.115 79.1826 19.3008C79.1859 19.4462 79.1487 19.6167 79.0711 19.7905C79.0339 19.8746 78.9848 19.9577 78.929 20.0386C78.7804 20.255 78.5913 20.4321 78.4055 20.537C78.1825 20.6638 77.9529 20.6977 77.7671 20.6146C77.7387 20.6048 77.7146 20.5895 77.6928 20.5742C77.5529 20.478 77.4818 20.3228 77.4763 20.137V20.1337C77.4698 19.9883 77.507 19.8211 77.5878 19.6506C77.625 19.5664 77.672 19.4801 77.7278 19.3992H77.7267ZM78.4885 19.3183C78.3617 19.3893 78.2284 19.5139 78.1223 19.6681C78.0786 19.7304 78.0447 19.7916 78.0196 19.8473C77.9726 19.9501 77.9485 20.0452 77.9518 20.1173C77.9518 20.1512 77.9584 20.173 77.9617 20.1796C77.9988 20.1949 78.0764 20.173 78.1661 20.1206C78.2929 20.0462 78.4262 19.9249 78.5344 19.7675C78.5749 19.7052 78.6087 19.6462 78.6372 19.5905C78.6842 19.4855 78.7049 19.3926 78.7028 19.3183C78.7028 19.2844 78.6995 19.2625 78.694 19.2593C78.6568 19.2407 78.5825 19.2658 78.4896 19.3183H78.4885Z" fill="black"/>
<path fill-rule="evenodd" clip-rule="evenodd" d="M128.01 4.0908C128.586 5.01444 138.478 6.7371 139.371 6.07143C145.672 0.812684 124.167 -2.93433 128.01 4.0908Z" fill="white"/>
<path d="M128.214 3.96398L128.218 3.97052C128.54 4.37933 131.048 4.99365 133.61 5.43962C136.182 5.88888 138.773 6.16212 139.225 5.8823C140.486 4.82202 140.52 3.84591 139.848 3.04032C138.934 1.94288 136.814 1.10341 134.591 0.716462C132.366 0.326237 130.057 0.387471 128.765 1.09469C127.801 1.62154 127.442 2.54518 128.213 3.96398H128.214ZM127.827 4.24598L127.802 4.20555C126.857 2.4796 127.322 1.33843 128.537 0.676032C129.928 -0.085835 132.358 -0.16344 134.677 0.242088C136.995 0.650895 139.226 1.54721 140.215 2.73429C141.073 3.75958 141.058 4.97507 139.528 6.25505L139.478 6.28894C138.926 6.63326 136.196 6.37855 133.531 5.914C130.893 5.45491 128.281 4.78267 127.85 4.2744L127.828 4.24598H127.827Z" fill="black"/>
</svg>
