<svg width="152" height="107" viewBox="0 0 152 107" fill="none" xmlns="http://www.w3.org/2000/svg">
<path fill-rule="evenodd" clip-rule="evenodd" d="M75.9231 3.97985C66.9414 3.83775 29.6099 3.76561 13.0511 32.9592C-3.51109 62.1496 0.561675 92.9117 1.26233 95.0159C6.14397 109.656 145.706 109.656 150.584 95.0159C151.288 92.9117 155.356 62.1496 138.795 32.9592C122.236 3.76561 84.9049 3.83666 75.9231 3.97985Z" fill="white"/>
<path d="M75.9199 4.21926C71.4383 4.14821 59.8846 4.09574 47.3952 7.69958C34.9178 11.298 21.5026 18.5461 13.2587 33.0784C7.47313 43.2811 4.20924 53.6751 2.44612 62.9661C-0.82652 80.1874 1.03606 93.5818 1.48859 94.9427C2.04934 96.6227 4.52841 98.1224 8.46454 99.433C21.1091 103.648 48.5145 105.755 75.9231 105.755C103.332 105.755 130.737 103.648 143.382 99.433C147.318 98.1224 149.797 96.6216 150.358 94.9427C150.81 93.5818 152.673 80.1852 149.403 62.9661C147.637 53.6751 144.376 43.2778 138.588 33.0784C130.347 18.5472 116.928 11.298 104.454 7.69958C91.9617 4.09574 80.408 4.14821 75.9275 4.21926H75.921H75.9199ZM47.2629 7.2405C59.8201 3.61808 71.4241 3.67054 75.9231 3.73831C80.4266 3.67054 92.0295 3.61699 104.583 7.2405C117.159 10.8662 130.687 18.1799 139.005 32.839C144.822 43.0942 148.098 53.5406 149.873 62.8754C153.161 80.1896 151.268 93.7152 150.812 95.0903C150.199 96.9277 147.614 98.5269 143.533 99.8877C130.836 104.118 103.374 106.235 75.9221 106.235C48.4697 106.235 21.0119 104.119 8.31479 99.8877C4.23328 98.5269 1.646 96.9277 1.03497 95.0903C0.575884 93.7141 -1.31731 80.1896 1.97392 62.8776C3.74687 53.5395 7.02497 43.0931 12.8423 32.8379C21.1605 18.1788 34.6883 10.8651 47.2607 7.23941L47.2629 7.2405Z" fill="black"/>
<path d="M75.8827 3.7416C76.0128 3.71974 76.1363 3.80937 76.1582 3.93944C76.18 4.06952 76.0926 4.19303 75.9625 4.21489C50.717 8.4232 35.3704 15.4899 26.346 30.0768C17.3086 44.6857 14.5814 66.8629 14.5814 101.273C14.5814 101.403 14.4731 101.511 14.3398 101.511C14.2064 101.511 14.1015 101.403 14.1015 101.273C14.1015 66.7766 16.8473 44.525 25.9405 29.8254C35.049 15.1018 50.4952 7.97395 75.8827 3.7405V3.7416Z" fill="black"/>
<path fill-rule="evenodd" clip-rule="evenodd" d="M47.1383 29.9195C48.0128 28.9127 49.413 28.575 50.2711 29.1631C51.1269 29.7522 51.1138 31.0475 50.2426 32.0575C49.3715 33.0642 47.968 33.402 47.1121 32.8139C46.254 32.2215 46.2661 30.9262 47.1372 29.9195H47.1383ZM48.1516 30.6168C48.4555 30.2692 48.9419 30.1523 49.2392 30.3567C49.5365 30.5611 49.53 31.0103 49.2294 31.3579C48.9255 31.7077 48.4391 31.8258 48.1418 31.6214C47.8477 31.417 47.851 30.9677 48.1516 30.6168Z" fill="white"/>
<path d="M46.9591 29.7653C47.4269 29.2231 48.0412 28.857 48.6544 28.7116C49.2862 28.5596 49.9191 28.6307 50.4055 28.9652C50.458 29.0023 50.5105 29.0428 50.5575 29.0832L50.564 29.0865C50.9422 29.4177 51.1379 29.8855 51.1466 30.3971C51.1565 30.8933 50.9881 31.4322 50.6482 31.9252C50.5826 32.0214 50.5083 32.1209 50.4252 32.2138C49.9574 32.7559 49.3442 33.1188 48.7299 33.2675C48.1003 33.4194 47.4652 33.3484 46.9788 33.0106C46.9263 32.9767 46.876 32.9363 46.8268 32.8958L46.8236 32.8893C46.4421 32.5603 46.2497 32.0924 46.241 31.582C46.2311 31.0857 46.3962 30.5468 46.7372 30.0539C46.8028 29.9544 46.8793 29.8582 46.9602 29.7653H46.9591ZM48.7659 29.1761C48.2456 29.2997 47.7242 29.6101 47.322 30.0779C47.2542 30.1555 47.1886 30.2386 47.1296 30.3228C46.8476 30.7316 46.711 31.1753 46.7175 31.5721C46.7241 31.9503 46.8629 32.2946 47.1362 32.5297L47.2509 32.616C47.6193 32.8707 48.1156 32.9232 48.6173 32.8018C49.1376 32.6783 49.6612 32.3646 50.0645 31.9C50.1323 31.8224 50.1979 31.7394 50.2536 31.6552C50.5356 31.2431 50.6755 30.8026 50.6657 30.4058C50.6591 30.0276 50.5203 29.6833 50.247 29.4483L50.1356 29.362C49.7639 29.1051 49.2677 29.0548 48.7659 29.1761ZM47.9724 30.4627C48.1549 30.2484 48.3998 30.1063 48.6413 30.0473C48.9015 29.985 49.1682 30.0167 49.3759 30.1588L49.4415 30.208C49.6087 30.3534 49.695 30.5578 49.6983 30.7818C49.7016 30.983 49.636 31.2038 49.5005 31.4016L49.4108 31.5164C49.2283 31.7306 48.9867 31.8727 48.7419 31.9318C48.4817 31.9941 48.215 31.9624 48.0106 31.8203L47.945 31.7678C47.7745 31.6224 47.6915 31.4202 47.6849 31.1972C47.6816 30.9961 47.7505 30.7753 47.886 30.5742C47.9079 30.5403 47.9385 30.5031 47.9724 30.4627ZM48.7528 30.5119C48.6042 30.549 48.4522 30.6387 48.3342 30.7753L48.2784 30.8463C48.1975 30.9611 48.1604 31.0824 48.1637 31.1874C48.1637 31.277 48.1943 31.3546 48.2566 31.4071L48.2784 31.4257C48.3681 31.4847 48.4949 31.4967 48.6282 31.4661C48.7769 31.4289 48.9288 31.3393 49.0469 31.2027L49.1026 31.1316C49.1835 31.0169 49.2207 30.8966 49.2207 30.7873C49.2174 30.701 49.1868 30.6234 49.1277 30.5709L49.1026 30.5523C49.013 30.49 48.8862 30.4813 48.7528 30.5119Z" fill="black"/>
<path d="M75.8827 4.21596C75.7526 4.1941 75.6663 4.07058 75.687 3.94051C75.7089 3.81043 75.8324 3.7208 75.9625 3.74267C101.353 7.97611 116.796 15.1007 125.905 29.8243C135 44.5239 137.744 66.7722 137.744 101.265C137.744 101.398 137.639 101.507 137.505 101.507C137.372 101.507 137.267 101.398 137.267 101.265C137.267 66.8585 134.537 44.6846 125.5 30.0757C116.479 15.4909 101.133 8.42536 75.8838 4.21705L75.8827 4.21596Z" fill="black"/>
<path fill-rule="evenodd" clip-rule="evenodd" d="M104.707 29.9195C103.836 28.9127 102.432 28.575 101.576 29.1631C100.718 29.7522 100.73 31.0475 101.601 32.0575C102.476 33.0642 103.876 33.402 104.734 32.8139C105.59 32.2215 105.577 30.9262 104.706 29.9195H104.707ZM103.694 30.6168C103.39 30.2692 102.903 30.1523 102.609 30.3567C102.312 30.5611 102.315 31.0103 102.619 31.3579C102.92 31.7077 103.406 31.8258 103.703 31.6214C104.001 31.417 103.997 30.9677 103.694 30.6168Z" fill="white"/>
<path d="M104.528 30.0779C104.124 29.6134 103.601 29.2997 103.08 29.1761C102.579 29.0548 102.082 29.1051 101.714 29.362L101.599 29.4483C101.327 29.6833 101.187 30.0276 101.181 30.4058C101.174 30.8026 101.311 31.2431 101.593 31.6552C101.652 31.7394 101.716 31.8224 101.785 31.9C102.188 32.3646 102.712 32.6783 103.229 32.8018C103.731 32.9232 104.23 32.8696 104.599 32.616L104.707 32.5318C104.982 32.2968 105.122 31.9525 105.129 31.571C105.138 31.1743 104.999 30.7348 104.717 30.3217C104.661 30.2375 104.595 30.1544 104.528 30.0768V30.0779ZM103.192 28.7116C103.805 28.857 104.419 29.2231 104.887 29.7653C104.971 29.8582 105.046 29.9577 105.11 30.0539C105.451 30.5468 105.618 31.0857 105.609 31.582C105.599 32.0968 105.401 32.5646 105.019 32.8958C104.97 32.9363 104.92 32.9767 104.871 33.0106C104.381 33.3484 103.749 33.4194 103.116 33.2675C102.505 33.1188 101.889 32.7559 101.421 32.2138C101.34 32.1209 101.263 32.0214 101.198 31.9252C100.857 31.4322 100.693 30.8933 100.702 30.3971C100.712 29.8855 100.903 29.4177 101.284 29.0898L101.288 29.0832C101.337 29.0428 101.387 29.0023 101.44 28.9652C101.926 28.6307 102.561 28.5596 103.191 28.7116H103.192ZM103.514 30.7753C103.396 30.6387 103.244 30.549 103.092 30.5119C102.959 30.4813 102.832 30.49 102.743 30.5523L102.721 30.5709C102.658 30.6234 102.628 30.701 102.628 30.7873C102.625 30.8955 102.665 31.0169 102.743 31.1316L102.798 31.2027C102.916 31.3393 103.068 31.4289 103.217 31.4661C103.35 31.4967 103.477 31.4847 103.567 31.4257L103.589 31.4071C103.651 31.3546 103.682 31.277 103.685 31.1874C103.685 31.0824 103.648 30.9611 103.57 30.8463L103.514 30.7753ZM103.204 30.0473C103.449 30.1063 103.69 30.2484 103.873 30.4627L103.962 30.5742C104.099 30.7753 104.164 30.9961 104.16 31.1972C104.157 31.4202 104.071 31.6213 103.903 31.7678L103.838 31.8203C103.63 31.9624 103.363 31.9941 103.103 31.9318C102.862 31.8727 102.62 31.7306 102.434 31.5164L102.348 31.4016C102.211 31.2038 102.144 30.983 102.147 30.7818C102.153 30.5589 102.24 30.3545 102.407 30.208L102.473 30.1588C102.677 30.0167 102.944 29.985 103.204 30.0473Z" fill="black"/>
<path d="M76.1647 105.997C76.1647 106.127 76.0565 106.235 75.9231 106.235C75.7898 106.235 75.6848 106.127 75.6848 105.997V6.44473C75.6848 6.31137 75.793 6.20316 75.9231 6.20316C76.0532 6.20316 76.1647 6.31137 76.1647 6.44473V105.997Z" fill="black"/>
<path fill-rule="evenodd" clip-rule="evenodd" d="M69.7123 5.73095C70.5124 6.67974 81.3338 6.67974 82.1361 5.73095C87.6834 -1.58931 64.1639 -1.58931 69.7123 5.73095Z" fill="white"/>
<path d="M69.8982 5.58229L69.908 5.59104C70.3879 5.99657 73.1468 6.20206 75.9232 6.20206C78.6996 6.20206 81.4585 5.99766 81.9416 5.59104L81.9514 5.58229C83.1691 3.97111 82.8685 2.75235 81.7776 1.9249C80.5075 0.960811 78.2197 0.480952 75.9232 0.480952C73.6266 0.480952 71.3432 0.960811 70.072 1.9249C68.9811 2.75235 68.6805 3.97002 69.8982 5.58229ZM69.5976 5.95721L69.52 5.87633C68.0881 3.98532 68.4663 2.5381 69.7834 1.54013C71.1377 0.514837 73.5359 0 75.9232 0C78.3104 0 80.7108 0.514837 82.0651 1.54013C83.3823 2.5381 83.7572 3.98532 82.3253 5.87633L82.3154 5.88835C82.2968 5.91021 82.2717 5.93536 82.2477 5.95612C81.6771 6.43926 78.7892 6.68082 75.9221 6.68082C73.055 6.68082 70.1704 6.43926 69.5965 5.95612L69.5976 5.95721Z" fill="black"/>
</svg>
