<svg width="98" height="57" viewBox="0 0 98 57" fill="none" xmlns="http://www.w3.org/2000/svg">
<path d="M31.94 42.8201C31.94 42.8201 24.38 40.8001 24.56 36.4101C24.56 36.4101 21.44 13.2101 35.06 6.51009C35.06 6.51009 50.17 -1.32991 64.27 3.01009" fill="#B15818"/>
<path d="M69.56 49.6201C69.56 49.6201 93.01 50.9801 95.7 47.5101C95.7 47.5101 99.94 31.3101 95.38 19.0501C93.35 13.5901 88.54 9.1601 82.4 6.8901C76.91 4.8601 68.34 2.11008 64.28 3.00008L69.56 49.6201Z" fill="#D77212"/>
<path d="M64.28 3.01007C64.28 3.01007 77.7 6.81007 69.56 49.6301C69.56 49.6301 41.52 46.59 31.95 42.83C31.95 42.83 25.48 4.69005 64.28 3.02005V3.01007Z" fill="#F3931D"/>
<path d="M67.73 2.59006C67.66 3.56006 65.92 4.23005 63.84 4.08005C61.76 3.93005 60.14 3.01007 60.21 2.04007C60.28 1.07007 62.02 0.400048 64.1 0.550048C66.18 0.700048 67.8 1.62006 67.73 2.59006Z" fill="#F3931D"/>
<path d="M24.48 35.67C24.48 35.67 -7.94 39.66 1.88 44.05C1.88 44.05 44.68 62 78.6 49.88L24.48 35.67Z" fill="#B15818"/>
<path d="M0.61 41.7401C0.61 41.7401 -4.94001 46.45 19.93 53.8C20.62 54 21.32 54.1601 22.03 54.2801C28.88 55.4201 65.08 60.7901 78.59 49.8901C78.59 49.8901 33.28 61.1501 0.599998 41.7501L0.61 41.7401Z" fill="#F3931D"/>
<path d="M32.03 44.05C31.9 45.77 26.82 46.8001 20.68 46.3501C14.54 45.9001 9.66 44.1401 9.79 42.4201C9.92 40.7001 15 39.67 21.14 40.12C27.28 40.57 32.16 42.33 32.03 44.05Z" fill="#58B5CF"/>
</svg>
