<svg width="98" height="56" viewBox="0 0 98 56" fill="none" xmlns="http://www.w3.org/2000/svg">
<path d="M31.92 42.29C31.92 42.29 24.36 40.27 24.54 35.88C24.54 35.88 21.42 12.68 35.04 5.98C35.04 5.98 50.15 -1.86001 64.25 2.48" fill="#B01B30"/>
<path d="M69.53 49.1C69.53 49.1 92.98 50.46 95.67 46.99C95.67 46.99 99.91 30.79 95.35 18.53C93.32 13.07 88.51 8.64 82.37 6.37C76.88 4.34 68.31 1.59 64.25 2.48L69.53 49.1Z" fill="#B01B30"/>
<path d="M64.25 2.48004C64.25 2.48004 77.67 6.28004 69.53 49.1C69.53 49.1 41.49 46.06 31.92 42.3C31.92 42.3 25.45 4.16004 64.25 2.49004V2.48004Z" fill="#9D191B"/>
<path d="M67.71 2.06002C67.64 3.03002 65.9 3.70002 63.82 3.55002C61.74 3.40002 60.12 2.48002 60.19 1.51002C60.26 0.540019 62 -0.129981 64.08 0.020019C66.16 0.170019 67.78 1.09002 67.71 2.06002Z" fill="#9D191B"/>
<path d="M24.45 35.14C24.45 35.14 -7.96 39.13 1.85 43.52C1.85 43.52 44.65 61.47 78.57 49.35L24.45 35.14Z" fill="#A5192B"/>
<path d="M0.58 41.21C0.58 41.21 -5.12 45.49 20.88 53C20.88 53 63.62 61.42 78.57 49.35C78.57 49.35 33.26 60.61 0.58 41.21Z" fill="#78161D"/>
<path d="M32 43.52C31.87 45.24 26.79 46.27 20.65 45.82C14.51 45.37 9.63 43.61 9.76 41.89C9.89 40.17 14.97 39.14 21.11 39.59C27.25 40.04 32.13 41.8 32 43.52Z" fill="#58B5CF"/>
</svg>
