<svg width="98" height="58" viewBox="0 0 98 58" fill="none" xmlns="http://www.w3.org/2000/svg">
<path d="M32.44 43.23C32.44 43.23 24.88 41.21 25.06 36.82C25.06 36.82 21.94 13.62 35.56 6.92C35.56 6.92 50.67 -0.920003 64.77 3.42" fill="#A0AB20"/>
<path d="M70.06 50.03C70.06 50.03 93.51 51.39 96.2 47.92C96.2 47.92 100.44 31.72 95.88 19.46C93.85 14 89.04 9.57 82.9 7.3C77.41 5.27 68.84 2.52 64.78 3.41L70.06 50.03Z" fill="#878B25"/>
<path d="M64.78 3.41003C64.78 3.41003 78.2 7.21003 70.06 50.03C70.06 50.03 42.02 46.99 32.45 43.23C32.45 43.23 25.98 5.09003 64.78 3.42003V3.41003Z" fill="#959D24"/>
<path d="M68.23 2.99002C68.16 3.96002 66.42 4.63001 64.34 4.48001C62.26 4.33001 60.64 3.41002 60.71 2.44002C60.78 1.47002 62.52 0.800011 64.6 0.950012C66.68 1.10001 68.3 2.02002 68.23 2.99002Z" fill="#797A25"/>
<path d="M24.98 36.07C24.98 36.07 -7.43998 40.06 2.38002 44.45C2.38002 44.45 45.18 62.4 79.1 50.28L24.98 36.07Z" fill="#C9CF51"/>
<path d="M1.11004 42.15C1.11004 42.15 -4.58996 46.99 21.41 54.49C21.41 54.49 64.15 62.36 79.1 50.29C79.1 50.29 33.79 61.55 1.11004 42.15Z" fill="#959D24"/>
<path d="M32.53 44.46C32.4 46.18 27.32 47.21 21.18 46.76C15.04 46.31 10.16 44.55 10.29 42.83C10.42 41.11 15.5 40.08 21.64 40.53C27.78 40.98 32.66 42.74 32.53 44.46Z" fill="#622954"/>
</svg>
