<svg width="98" height="57" viewBox="0 0 98 57" fill="none" xmlns="http://www.w3.org/2000/svg">
<path d="M32.18 42.5C32.18 42.5 24.62 40.48 24.8 36.09C24.8 36.09 21.68 12.89 35.3 6.19002C35.3 6.19002 50.41 -1.64998 64.51 2.69002" fill="#3F94C7"/>
<path d="M69.79 49.3C69.79 49.3 93.24 50.66 95.93 47.19C95.93 47.19 100.17 30.99 95.61 18.73C93.58 13.27 88.77 8.83997 82.63 6.56997C77.14 4.53997 68.57 1.78995 64.51 2.67995L69.79 49.3Z" fill="#25779F"/>
<path d="M64.51 2.69C64.51 2.69 77.93 6.49 69.79 49.31C69.79 49.31 41.75 46.27 32.18 42.51C32.18 42.51 25.71 4.37 64.51 2.7V2.69Z" fill="#53A1D9"/>
<path d="M67.97 2.26999C67.9 3.23999 66.16 3.90998 64.08 3.75998C62 3.60998 60.38 2.68999 60.45 1.71999C60.52 0.749985 62.26 0.0799798 64.34 0.22998C66.42 0.37998 68.04 1.29999 67.97 2.26999Z" fill="#2D4458"/>
<path d="M24.72 35.35C24.72 35.35 -7.69999 39.34 2.12 43.73C2.12 43.73 44.92 61.68 78.84 49.56L24.72 35.35Z" fill="#AA1F17"/>
<path d="M0.849997 41.42C0.849997 41.42 -4.85001 46.26 21.15 53.76C21.15 53.76 63.89 61.63 78.84 49.56C78.84 49.56 33.53 60.82 0.849997 41.42Z" fill="#959D24"/>
<path d="M32.27 43.73C32.14 45.45 27.06 46.48 20.92 46.03C14.78 45.58 9.9 43.82 10.03 42.1C10.16 40.38 15.24 39.35 21.38 39.8C27.52 40.25 32.4 42.01 32.27 43.73Z" fill="#58B5CF"/>
</svg>
