<svg width="216" height="70" viewBox="0 0 216 70" fill="none" xmlns="http://www.w3.org/2000/svg">
<path d="M39.4631 9.37885H4.03452V52.8159H39.4631V9.37885Z" fill="#FFF800"/>
<path d="M84.1671 12.0575H48.291V51.5557H84.1671V12.0575Z" fill="#FFF800"/>
<path d="M126.757 9.79883H90.4885V52.8158H126.757V9.79883Z" fill="#FFF800"/>
<path d="M164.713 9.37885H139.407V52.3958H164.713V9.37885Z" fill="#FFF800"/>
<path d="M212.791 9.79883H175.675V51.9688H212.791V9.79883Z" fill="#FFF800"/>
<path d="M172.329 54.5786H130.503V7.89832C132.335 7.89832 134.139 7.89832 135.95 7.89832C137.334 7.89832 137.121 8.00161 137.121 6.70704C137.127 4.56549 137.121 2.42393 137.121 0.227295H165.229V7.88455H172.322V54.5924L172.329 54.5786ZM142.664 19.4875H145.659V43.0583H142.698V50.5985H159.92V43.0239H156.849V19.4599H159.913V11.9335H142.664V19.4875Z" fill="#010101"/>
<path d="M43.4776 54.5856H0.811859V7.87776H8.78587V0.213623H36.206V7.86399H43.4707V54.5925L43.4776 54.5856ZM27.9979 35.9934V27.496H32.3292V23.1509H35.4072V12.0094H24.8647V20.0247H21.2289V27.8954H16.4431V12.0094H5.30843V50.6055H16.4638V35.3943H21.2702V42.8174H24.9198V50.6193H35.3866V39.581H32.281V36.0003H27.9979V35.9934Z" fill="#010101"/>
<path d="M215.27 54.5718H173.19V7.90522H180.441V0.199768H207.861V7.85702H215.27V54.5649V54.5718ZM207.64 27.551V23.1853H210.601C210.822 22.8548 210.739 22.5724 210.739 22.3039C210.739 19.1157 210.718 15.9274 210.76 12.7392C210.767 12.0368 210.519 11.9335 209.906 11.9335C206.931 11.9611 203.963 11.9404 200.988 11.9473C200.747 11.9473 200.493 11.8647 200.197 12.147V19.9971H196.499V27.8747H191.754V19.9351H187.891V11.9886H176.942V23.206H180.544V27.551H184.173V36.014H180.482V39.5947H176.942V50.6054H187.939V42.7623H191.823V35.3804H196.526V42.8173H200.238V50.6054H210.698V39.574H207.62V35.9589C206.353 35.9589 205.168 35.9589 203.984 35.9589C203.591 35.9589 203.275 35.9313 203.275 35.408C203.281 32.8051 203.275 30.2022 203.275 27.5304H207.64V27.551Z" fill="#010101"/>
<path d="M44.3797 54.5787V7.91212H51.0729V0.206665H79.0852V7.85015H85.7853V54.5718H44.3866L44.3797 54.5787ZM82.4594 19.5357C82.4594 17.2427 82.4249 15.1011 82.48 12.9596C82.5007 12.1952 82.3285 11.9404 81.5022 11.9404C70.7394 11.968 59.9765 11.9611 49.2137 11.9611C48.9176 11.9611 48.6146 11.8785 48.291 12.0575V50.6054H82.3974V43.2581H59.4945V34.8089H70.2298V27.2549H59.4876V19.5288H82.4525L82.4594 19.5357Z" fill="#010101"/>
<path d="M86.6667 54.5717V7.91897H94.2069V0.220398H122.391C122.391 2.52033 122.412 4.79272 122.378 7.07199C122.364 7.71239 122.522 7.93274 123.197 7.91897C125.339 7.87765 127.48 7.9052 129.663 7.9052V54.5786H86.6667V54.5717ZM91.1013 11.9886V50.5985H102.319V38.9818H125.407V11.9886H91.1082H91.1013Z" fill="#010101"/>
<path d="M114.355 31.6069H102.36V19.5632H114.355V31.6069Z" fill="#010101"/>
<path d="M2.78814 69.115C2.42318 69.115 2.13397 69.0943 1.93428 69.053C1.72769 69.0117 1.56243 68.9566 1.4316 68.8878L1.65195 67.5657C1.71392 67.6001 1.83099 67.6483 2.00314 67.7171C2.17529 67.786 2.40252 67.8136 2.68485 67.8136C3.13933 67.8136 3.48363 67.5657 3.73153 67.0699L1.0873 60.0323H3.03604L4.79886 65.0041L6.56168 60.0323H8.14547L5.74225 66.4295C5.5701 66.8977 5.38417 67.304 5.19136 67.6483C4.99855 67.9857 4.78509 68.268 4.55096 68.4884C4.31684 68.7087 4.05517 68.8671 3.76596 68.9704C3.47674 69.0737 3.1531 69.1288 2.78814 69.1288V69.115Z" fill="black"/>
<path d="M13.5372 63.861H11.0376V66.6567H9.13017V60.0255H11.0376V62.6835H13.5372V60.0255H15.4309V66.6567H13.5372V63.861Z" fill="black"/>
<path d="M17.0284 60.0255H18.9014V64.4325L21.8693 60.0255H23.5701V66.6567H21.6972V62.2496L18.7431 66.6567H17.0284V60.0255Z" fill="black"/>
<path d="M27.0682 63.2206V66.6567H25.1608V60.0255H27.0682V63.193L29.6574 60.0255H31.3582L28.9894 62.9451L31.5373 66.6567H29.3819L27.0682 63.2206Z" fill="black"/>
<path d="M36.2611 66.6567C36.2198 66.5465 36.1784 66.4088 36.1509 66.2573C36.1234 66.1058 36.0958 65.9406 36.082 65.7684C36.0063 65.8924 35.9099 66.0094 35.7928 66.1334C35.6827 66.2573 35.5518 66.3675 35.4003 66.457C35.2488 66.5534 35.0767 66.6292 34.877 66.6912C34.6773 66.7531 34.4501 66.7807 34.1953 66.7807C33.8785 66.7807 33.5893 66.7394 33.3208 66.6636C33.0522 66.5879 32.8181 66.4639 32.6253 66.3055C32.4325 66.1472 32.281 65.9406 32.1777 65.6996C32.0675 65.4586 32.0124 65.1693 32.0124 64.8526C32.0124 64.2053 32.2878 63.6888 32.8525 63.2895C33.4103 62.8901 34.271 62.6973 35.4416 62.6973H36.0063V62.3254C36.0063 61.9329 35.9099 61.6299 35.7171 61.4371C35.5243 61.2443 35.1662 61.141 34.6429 61.141C34.2572 61.141 33.9267 61.203 33.6513 61.3338C33.3689 61.4647 33.1004 61.623 32.825 61.8227L32.2741 60.5006C32.5564 60.3354 32.9007 60.1907 33.3276 60.0737C33.7477 59.9566 34.2779 59.8947 34.9183 59.8947C35.8755 59.8947 36.6192 60.0806 37.1356 60.4524C37.6521 60.8243 37.9137 61.4302 37.9137 62.2634V65.5963C37.9137 65.7478 37.9137 65.9268 37.9344 66.154C37.9482 66.3744 37.9688 66.5465 37.9964 66.6567H36.268H36.2611ZM34.8081 65.61C35.1249 65.61 35.3728 65.5343 35.5587 65.3828C35.7446 65.2313 35.8892 65.0454 35.9994 64.8182V63.62H35.4761C34.8839 63.62 34.4707 63.7095 34.2435 63.8954C34.0093 64.0745 33.8992 64.343 33.8992 64.6873C33.8992 64.9972 33.9818 65.2313 34.1471 65.3828C34.3123 65.5343 34.5327 65.61 34.815 65.61H34.8081Z" fill="black"/>
<path d="M41.6115 64.9145C41.4187 65.5894 41.1433 66.0714 40.7714 66.3537C40.4065 66.636 39.9038 66.7393 39.2703 66.6705L39.0086 65.1693C39.3322 65.2244 39.587 65.1693 39.773 65.0109C39.9589 64.8526 40.1035 64.5634 40.1999 64.1502C40.2963 63.7301 40.3583 63.1861 40.3927 62.5251C40.4271 61.8571 40.4478 61.0308 40.4478 60.0323H45.4264V66.6636H43.5189V61.2787H41.9489C41.942 62.0431 41.9145 62.7248 41.8663 63.3376C41.8181 63.9436 41.7355 64.4738 41.6115 64.9283V64.9145Z" fill="black"/>
<path d="M47.0101 60.0255H48.9038V62.0913H49.8816C50.8043 62.0913 51.5274 62.2772 52.0369 62.6559C52.5534 63.0278 52.8082 63.5855 52.8082 64.3292C52.8082 64.7148 52.7393 65.0454 52.5947 65.3346C52.4501 65.6238 52.2504 65.8648 51.9887 66.0576C51.7271 66.2573 51.4172 66.4019 51.0522 66.5052C50.6873 66.6085 50.2948 66.6567 49.8678 66.6567H47.0033V60.0255H47.0101ZM48.9038 63.2068V65.548H49.6199C50.0056 65.548 50.3086 65.4585 50.5427 65.2795C50.7768 65.1005 50.887 64.8043 50.887 64.3843C50.887 63.9643 50.7768 63.6682 50.5633 63.4822C50.3499 63.2963 50.0469 63.2068 49.6544 63.2068H48.8969H48.9038Z" fill="black"/>
<path d="M58.4478 63.861H55.9482V66.6567H54.0408V60.0255H55.9482V62.6835H58.4478V60.0255H60.3415V66.6567H58.4478V63.861Z" fill="black"/>
<path d="M61.939 60.0255H63.8465V62.0913H64.7899C65.7126 62.0913 66.4356 62.2772 66.9452 62.6559C67.4547 63.0346 67.7164 63.5855 67.7164 64.3292C67.7164 64.7148 67.6407 65.0454 67.4961 65.3346C67.3515 65.6238 67.1449 65.8648 66.8832 66.0576C66.6215 66.2573 66.3117 66.4019 65.9467 66.5052C65.5817 66.6085 65.1892 66.6567 64.7623 66.6567H61.939V60.0255ZM63.8465 63.2068V65.548H64.5282C64.9138 65.548 65.2168 65.4585 65.4509 65.2795C65.685 65.1005 65.7952 64.8043 65.7952 64.3843C65.7952 63.9643 65.685 63.6682 65.4716 63.4822C65.2581 63.2963 64.9551 63.2068 64.5626 63.2068H63.8465ZM70.3056 66.6567H68.4119V60.0255H70.3056V66.6567Z" fill="black"/>
<path d="M77.6323 66.1196C77.4326 66.2642 77.1296 66.4157 76.7164 66.5672C76.3033 66.7118 75.8075 66.7875 75.2153 66.7875C74.6231 66.7875 74.086 66.7049 73.6315 66.5465C73.177 66.3882 72.7983 66.154 72.5022 65.851C72.1992 65.5481 71.972 65.19 71.8205 64.7562C71.669 64.3292 71.5932 63.8541 71.5932 63.3308C71.5932 62.8074 71.669 62.3254 71.8274 61.8985C71.9857 61.4715 72.2061 61.1135 72.4953 60.8174C72.7845 60.5213 73.1219 60.294 73.5213 60.1288C73.9207 59.9635 74.3614 59.8878 74.8503 59.8878C75.3392 59.8878 75.7799 59.9635 76.1724 60.1219C76.5649 60.2803 76.8886 60.5144 77.1503 60.8311C77.405 61.1479 77.5841 61.5404 77.6874 62.0087C77.7907 62.4769 77.7838 63.0209 77.6874 63.6406H73.5007C73.5626 64.2604 73.7554 64.7217 74.086 65.0247C74.4096 65.3208 74.8641 65.4723 75.4425 65.4723C75.8075 65.4723 76.1449 65.4241 76.4548 65.3208C76.7646 65.2175 77.0401 65.0936 77.288 64.949L77.6529 66.1127L77.6323 66.1196ZM74.8503 61.0171C74.4923 61.0171 74.1962 61.1548 73.9689 61.4302C73.7348 61.7057 73.5902 62.1051 73.5213 62.6422H75.9796C76.0003 62.0844 75.9039 61.6712 75.6973 61.4165C75.4907 61.1548 75.2084 61.024 74.8572 61.024L74.8503 61.0171Z" fill="black"/>
<path d="M86.1021 61.2718H83.7608V66.6567H81.8534V60.0255H88.0095V66.6567H86.1021V61.2718Z" fill="black"/>
<path d="M92.8022 66.7875C92.3133 66.7875 91.8588 66.7118 91.4319 66.5603C91.0049 66.4088 90.6331 66.1885 90.3232 65.8924C90.0065 65.6032 89.7586 65.2382 89.5795 64.8113C89.3936 64.3843 89.3041 63.8954 89.3041 63.3308C89.3041 62.7661 89.3936 62.2772 89.5795 61.8503C89.7654 61.4233 90.0133 61.0653 90.3232 60.7692C90.64 60.48 91.0049 60.2596 91.4319 60.1081C91.8588 59.9566 92.3133 59.8878 92.8022 59.8878C93.2911 59.8878 93.7524 59.9635 94.1794 60.1081C94.6132 60.2527 94.985 60.4731 95.3018 60.7692C95.6186 61.0584 95.8733 61.4233 96.0524 61.8503C96.2314 62.2772 96.3278 62.773 96.3278 63.3308C96.3278 63.8885 96.2383 64.3843 96.0524 64.8113C95.8665 65.2382 95.6186 65.5963 95.3018 65.8924C94.985 66.1816 94.6132 66.4088 94.1863 66.5603C93.7593 66.7118 93.298 66.7875 92.8022 66.7875ZM92.8022 65.5481C93.2567 65.5481 93.6354 65.3828 93.9315 65.0454C94.2345 64.708 94.386 64.1433 94.386 63.3377C94.386 62.532 94.2345 61.9811 93.9315 61.6437C93.6285 61.3063 93.2567 61.141 92.8022 61.141C92.5749 61.141 92.3684 61.1823 92.1824 61.2581C91.9965 61.3338 91.8312 61.4647 91.6935 61.6368C91.5558 61.809 91.4456 62.0362 91.3699 62.3185C91.2941 62.6008 91.2528 62.9383 91.2528 63.3377C91.2528 63.737 91.2941 64.0813 91.3699 64.3568C91.4456 64.6391 91.5558 64.8663 91.6935 65.0454C91.8312 65.2244 91.9965 65.3553 92.1824 65.431C92.3684 65.5068 92.5749 65.5481 92.8022 65.5481Z" fill="black"/>
<path d="M102.918 66.6567H98.5245L98.2352 68.7363H96.8649V65.4172H97.3745C97.643 65.1969 97.8496 64.887 97.9873 64.4876C98.1457 64.04 98.2628 63.4616 98.3316 62.7386C98.4074 62.0155 98.4625 61.1135 98.5107 60.0323H103.586V65.4172H104.577V68.7363H103.207L102.918 66.6567ZM99.3577 65.0109C99.2888 65.1555 99.2131 65.2933 99.1373 65.4103H101.671V61.2649H99.9567C99.9223 62.1601 99.8603 62.9038 99.7639 63.5098C99.6744 64.1158 99.5367 64.6116 99.3508 65.0041L99.3577 65.0109Z" fill="black"/>
<path d="M109.446 66.6567C109.404 66.5465 109.363 66.4088 109.336 66.2573C109.308 66.1058 109.28 65.9406 109.267 65.7684C109.191 65.8924 109.095 66.0094 108.977 66.1334C108.867 66.2573 108.736 66.3675 108.585 66.457C108.433 66.5534 108.261 66.6292 108.062 66.6912C107.862 66.7531 107.635 66.7807 107.38 66.7807C107.063 66.7807 106.774 66.7394 106.505 66.6636C106.237 66.5879 106.003 66.4639 105.81 66.3055C105.617 66.1472 105.466 65.9406 105.362 65.6996C105.252 65.4586 105.197 65.1693 105.197 64.8526C105.197 64.2053 105.472 63.6888 106.037 63.2895C106.595 62.8901 107.456 62.6973 108.626 62.6973H109.191V62.3254C109.191 61.9329 109.095 61.6299 108.902 61.4371C108.709 61.2374 108.351 61.141 107.827 61.141C107.442 61.141 107.111 61.203 106.836 61.3338C106.554 61.4647 106.285 61.623 106.01 61.8227L105.459 60.5006C105.741 60.3354 106.085 60.1907 106.512 60.0737C106.932 59.9566 107.463 59.8947 108.103 59.8947C109.06 59.8947 109.797 60.0806 110.32 60.4524C110.837 60.8243 111.098 61.4302 111.098 62.2634V65.5963C111.098 65.7478 111.098 65.9268 111.119 66.154C111.133 66.3744 111.153 66.5465 111.174 66.6567H109.446ZM107.993 65.61C108.31 65.61 108.557 65.5343 108.743 65.3828C108.929 65.2313 109.074 65.0454 109.184 64.8182V63.62H108.661C108.068 63.62 107.655 63.7095 107.428 63.8954C107.194 64.0745 107.084 64.343 107.084 64.6873C107.084 64.9972 107.166 65.2313 107.332 65.3828C107.497 65.5343 107.717 65.61 108 65.61H107.993Z" fill="black"/>
<path d="M116.586 66.7876C116.098 66.7876 115.684 66.6843 115.34 66.4777C114.996 66.2711 114.707 65.9888 114.486 65.6376V69.0255H112.579V60.0255H114.293L114.438 61.1273C114.658 60.7416 114.948 60.4455 115.306 60.2252C115.664 60.0048 116.104 59.9016 116.621 59.9016C117.007 59.9016 117.372 59.9704 117.716 60.1081C118.067 60.2459 118.37 60.4593 118.639 60.7416C118.907 61.024 119.114 61.382 119.272 61.8159C119.43 62.2497 119.506 62.7524 119.506 63.3377C119.506 63.923 119.43 64.4326 119.272 64.8595C119.114 65.2933 118.9 65.6514 118.632 65.9406C118.363 66.2298 118.053 66.4433 117.702 66.581C117.351 66.7187 116.986 66.7876 116.593 66.7876H116.586ZM116.036 65.5481C116.483 65.5481 116.841 65.369 117.13 65.0179C117.42 64.6667 117.557 64.102 117.557 63.3377C117.557 62.5733 117.413 62.0362 117.124 61.6781C116.834 61.3201 116.476 61.141 116.036 61.141C115.595 61.141 115.216 61.3201 114.92 61.6713C114.617 62.0224 114.466 62.5802 114.466 63.3377C114.466 63.7233 114.507 64.0538 114.583 64.3293C114.658 64.6047 114.775 64.8388 114.913 65.0179C115.051 65.1969 115.223 65.3277 115.409 65.4173C115.595 65.5068 115.801 65.5481 116.029 65.5481H116.036Z" fill="black"/>
<path d="M122.639 63.2206V66.6567H120.732V60.0255H122.639V63.193L125.228 60.0255H126.929L124.56 62.9451L127.108 66.6567H124.953L122.639 63.2206Z" fill="black"/>
<path d="M128.107 60.0255H129.98V64.4325L132.948 60.0255H134.649V66.6567H132.776V62.2496L129.821 66.6567H128.107V60.0255Z" fill="black"/>
<path d="M136.019 68.0339C136.205 67.8342 136.363 67.607 136.508 67.3522C136.652 67.0974 136.756 66.8564 136.818 66.6223C136.577 66.5534 136.398 66.4295 136.281 66.2504C136.17 66.0714 136.108 65.8855 136.108 65.6927C136.108 65.4034 136.205 65.1624 136.391 64.9696C136.577 64.7699 136.824 64.6735 137.127 64.6735C137.43 64.6735 137.685 64.7768 137.878 64.9765C138.078 65.1762 138.174 65.4585 138.174 65.8097C138.174 66.0301 138.147 66.2504 138.085 66.4708C138.023 66.6911 137.947 66.9046 137.851 67.0974C137.754 67.2971 137.651 67.4692 137.527 67.6345C137.41 67.7929 137.293 67.9306 137.183 68.0339H136.019Z" fill="black"/>
<path d="M146.279 66.6567C146.238 66.5465 146.196 66.4088 146.169 66.2573C146.141 66.1058 146.114 65.9406 146.1 65.7684C146.024 65.8924 145.928 66.0094 145.811 66.1334C145.701 66.2573 145.57 66.3675 145.418 66.457C145.267 66.5534 145.095 66.6292 144.895 66.6912C144.695 66.7531 144.468 66.7807 144.213 66.7807C143.896 66.7807 143.607 66.7394 143.339 66.6636C143.07 66.5879 142.836 66.4639 142.643 66.3055C142.45 66.1472 142.299 65.9406 142.189 65.6996C142.079 65.4586 142.023 65.1693 142.023 64.8526C142.023 64.2053 142.306 63.6888 142.857 63.2895C143.414 62.8901 144.275 62.6973 145.446 62.6973H146.01V62.3254C146.01 61.9329 145.914 61.6299 145.721 61.4371C145.528 61.2374 145.17 61.141 144.647 61.141C144.261 61.141 143.931 61.203 143.655 61.3338C143.373 61.4647 143.105 61.623 142.829 61.8227L142.278 60.5006C142.554 60.3354 142.905 60.1907 143.332 60.0737C143.759 59.9566 144.282 59.8947 144.922 59.8947C145.88 59.8947 146.616 60.0806 147.14 60.4524C147.656 60.8243 147.918 61.4302 147.918 62.2634V65.5963C147.918 65.7478 147.918 65.9268 147.939 66.154C147.952 66.3744 147.973 66.5465 147.994 66.6567H146.265H146.279ZM144.826 65.61C145.143 65.61 145.391 65.5343 145.577 65.3828C145.763 65.2313 145.907 65.0454 146.017 64.8182V63.62H145.494C144.902 63.62 144.489 63.7095 144.261 63.8954C144.034 64.0745 143.917 64.343 143.917 64.6873C143.917 64.9972 144 65.2313 144.165 65.3828C144.33 65.5343 144.551 65.61 144.833 65.61H144.826Z" fill="black"/>
<path d="M151.368 63.2206V66.6567H149.46V60.0255H151.368V63.193L153.957 60.0255H155.658L153.289 62.9451L155.837 66.6567H153.681L151.368 63.2206Z" fill="black"/>
<path d="M159.617 66.7876C159.121 66.7876 158.66 66.7118 158.233 66.5672C157.806 66.4226 157.434 66.2022 157.131 65.913C156.821 65.6238 156.58 65.2726 156.401 64.8526C156.222 64.4325 156.133 63.9505 156.133 63.3996C156.133 62.8488 156.222 62.3736 156.408 61.9329C156.594 61.4991 156.842 61.1273 157.166 60.8312C157.489 60.5282 157.875 60.3009 158.323 60.1357C158.77 59.9773 159.259 59.8947 159.782 59.8947C160.237 59.8947 160.609 59.9291 160.891 59.9911C161.18 60.053 161.408 60.1357 161.587 60.2183L161.167 61.6299C160.96 61.4784 160.753 61.3545 160.561 61.265C160.361 61.1755 160.099 61.1273 159.769 61.1273C159.541 61.1273 159.328 61.1755 159.128 61.265C158.929 61.3545 158.75 61.4922 158.598 61.6712C158.447 61.8503 158.323 62.0775 158.233 62.3461C158.144 62.6146 158.095 62.9383 158.095 63.3032C158.095 64.0469 158.261 64.6047 158.584 64.9765C158.915 65.3415 159.362 65.5274 159.941 65.5274C160.196 65.5274 160.437 65.4792 160.678 65.3897C160.919 65.2933 161.125 65.1762 161.297 65.0316L161.69 66.1334C161.525 66.278 161.27 66.4226 160.926 66.5672C160.581 66.7049 160.147 66.7738 159.624 66.7738L159.617 66.7876Z" fill="black"/>
<path d="M168.665 66.1196C168.466 66.2642 168.163 66.4157 167.75 66.5672C167.336 66.7118 166.841 66.7875 166.248 66.7875C165.656 66.7875 165.119 66.7049 164.665 66.5465C164.21 66.3882 163.831 66.154 163.535 65.851C163.239 65.5481 163.005 65.19 162.854 64.7562C162.702 64.3292 162.626 63.8541 162.626 63.3308C162.626 62.8074 162.702 62.3254 162.861 61.8985C163.019 61.4784 163.239 61.1135 163.528 60.8174C163.818 60.5213 164.162 60.294 164.554 60.1288C164.954 59.9704 165.395 59.8878 165.883 59.8878C166.372 59.8878 166.813 59.9635 167.206 60.1219C167.598 60.2803 167.922 60.5144 168.183 60.8311C168.438 61.1479 168.617 61.5404 168.721 62.0087C168.824 62.4769 168.817 63.0209 168.721 63.6406H164.534C164.596 64.2604 164.789 64.7217 165.112 65.0247C165.436 65.3277 165.89 65.4723 166.469 65.4723C166.834 65.4723 167.171 65.4241 167.481 65.3208C167.791 65.2175 168.066 65.0936 168.314 64.949L168.679 66.1127L168.665 66.1196ZM165.883 61.0171C165.525 61.0171 165.229 61.1548 165.002 61.4302C164.768 61.7057 164.623 62.1051 164.548 62.6422H167.006C167.02 62.0844 166.93 61.6712 166.724 61.4165C166.517 61.1548 166.235 61.024 165.883 61.024V61.0171Z" fill="black"/>
<path d="M173.245 66.7876C172.749 66.7876 172.287 66.7118 171.861 66.5672C171.434 66.4226 171.062 66.2022 170.759 65.913C170.449 65.6238 170.208 65.2726 170.029 64.8526C169.85 64.4325 169.76 63.9505 169.76 63.3996C169.76 62.8488 169.85 62.3736 170.036 61.9329C170.222 61.4991 170.47 61.1273 170.793 60.8312C171.117 60.5282 171.502 60.3009 171.95 60.1357C172.398 59.9773 172.887 59.8947 173.41 59.8947C173.864 59.8947 174.236 59.9291 174.519 59.9911C174.808 60.053 175.035 60.1357 175.214 60.2183L174.794 61.6299C174.587 61.4784 174.381 61.3545 174.188 61.265C173.988 61.1755 173.727 61.1273 173.396 61.1273C173.169 61.1273 172.955 61.1755 172.756 61.265C172.556 61.3545 172.377 61.4922 172.226 61.6712C172.074 61.8503 171.95 62.0775 171.861 62.3461C171.771 62.6146 171.723 62.9383 171.723 63.3032C171.723 64.0469 171.888 64.6047 172.212 64.9765C172.542 65.3415 172.99 65.5274 173.568 65.5274C173.823 65.5274 174.064 65.4792 174.305 65.3897C174.546 65.2933 174.753 65.1762 174.925 65.0316L175.317 66.1334C175.152 66.278 174.897 66.4226 174.553 66.5672C174.209 66.7049 173.775 66.7738 173.252 66.7738L173.245 66.7876Z" fill="black"/>
<path d="M179.738 66.7876C179.242 66.7876 178.781 66.7118 178.354 66.5672C177.927 66.4226 177.555 66.2022 177.252 65.913C176.942 65.6238 176.701 65.2726 176.522 64.8526C176.343 64.4325 176.254 63.9505 176.254 63.3996C176.254 62.8488 176.343 62.3736 176.529 61.9329C176.715 61.4991 176.963 61.1273 177.287 60.8312C177.61 60.5282 177.996 60.3009 178.444 60.1357C178.891 59.9773 179.38 59.8947 179.903 59.8947C180.358 59.8947 180.73 59.9291 181.012 59.9911C181.301 60.053 181.529 60.1357 181.708 60.2183L181.288 61.6299C181.081 61.4784 180.874 61.3545 180.682 61.265C180.482 61.1755 180.22 61.1273 179.89 61.1273C179.662 61.1273 179.449 61.1755 179.249 61.265C179.05 61.3545 178.871 61.4922 178.719 61.6712C178.568 61.8503 178.444 62.0775 178.354 62.3461C178.265 62.6146 178.216 62.9383 178.216 63.3032C178.216 64.0469 178.382 64.6047 178.705 64.9765C179.036 65.3415 179.483 65.5274 180.062 65.5274C180.317 65.5274 180.558 65.4792 180.799 65.3897C181.04 65.2933 181.246 65.1762 181.418 65.0316L181.811 66.1334C181.646 66.278 181.391 66.4226 181.047 66.5672C180.702 66.7049 180.268 66.7738 179.745 66.7738L179.738 66.7876Z" fill="black"/>
<path d="M184.345 69.115C183.98 69.115 183.691 69.0943 183.491 69.053C183.284 69.0117 183.119 68.9566 182.988 68.8878L183.209 67.5657C183.271 67.6001 183.388 67.6483 183.56 67.7171C183.732 67.786 183.959 67.8136 184.242 67.8136C184.696 67.8136 185.04 67.5657 185.288 67.0699L182.644 60.0323H184.593L186.356 65.0041L188.118 60.0323H189.702L187.299 66.4295C187.127 66.8977 186.941 67.304 186.748 67.6483C186.555 67.9857 186.342 68.268 186.108 68.4884C185.874 68.7087 185.612 68.8671 185.323 68.9704C185.034 69.0737 184.71 69.1288 184.345 69.1288V69.115Z" fill="black"/>
<path d="M194.412 66.6567C194.371 66.5465 194.33 66.4088 194.302 66.2573C194.275 66.1058 194.247 65.9406 194.233 65.7684C194.157 65.8924 194.061 66.0094 193.944 66.1334C193.834 66.2573 193.703 66.3675 193.552 66.457C193.4 66.5534 193.228 66.6292 193.028 66.6912C192.828 66.7531 192.601 66.7807 192.346 66.7807C192.03 66.7807 191.74 66.7394 191.472 66.6636C191.203 66.5879 190.969 66.4639 190.776 66.3055C190.584 66.1472 190.432 65.9406 190.322 65.6996C190.212 65.4586 190.157 65.1693 190.157 64.8526C190.157 64.2053 190.439 63.6888 190.99 63.2895C191.548 62.8901 192.408 62.6973 193.579 62.6973H194.144V62.3254C194.144 61.9329 194.047 61.6299 193.855 61.4371C193.662 61.2374 193.304 61.141 192.78 61.141C192.395 61.141 192.064 61.203 191.789 61.3338C191.506 61.4647 191.238 61.623 190.962 61.8227L190.412 60.5006C190.687 60.3354 191.038 60.1907 191.465 60.0737C191.892 59.9566 192.415 59.8947 193.056 59.8947C194.013 59.8947 194.75 60.0806 195.273 60.4524C195.789 60.8243 196.051 61.4302 196.051 62.2634V65.5963C196.051 65.7478 196.051 65.9268 196.072 66.154C196.086 66.3744 196.106 66.5465 196.127 66.6567H194.398H194.412ZM192.959 65.61C193.276 65.61 193.524 65.5343 193.71 65.3828C193.896 65.2313 194.04 65.0454 194.151 64.8182V63.62H193.627C193.035 63.62 192.622 63.7095 192.395 63.8954C192.167 64.0745 192.05 64.343 192.05 64.6873C192.05 64.9972 192.133 65.2313 192.298 65.3828C192.464 65.5343 192.684 65.61 192.966 65.61H192.959Z" fill="black"/>
<path d="M201.553 66.7876C201.064 66.7876 200.651 66.6843 200.307 66.4777C199.962 66.2711 199.673 65.9888 199.453 65.6376V69.0255H197.545V60.0255H199.26L199.405 61.1273C199.625 60.7416 199.914 60.4455 200.272 60.2252C200.63 60.0048 201.071 59.9016 201.588 59.9016C201.973 59.9016 202.338 59.9704 202.682 60.1081C203.034 60.2459 203.337 60.4593 203.605 60.7416C203.874 61.024 204.08 61.382 204.239 61.8159C204.397 62.2497 204.473 62.7524 204.473 63.3377C204.473 63.923 204.397 64.4326 204.239 64.8595C204.08 65.2933 203.867 65.6514 203.598 65.9406C203.33 66.2298 203.02 66.4433 202.669 66.581C202.317 66.7187 201.952 66.7876 201.56 66.7876H201.553ZM201.002 65.5481C201.45 65.5481 201.808 65.369 202.097 65.0179C202.386 64.6667 202.524 64.102 202.524 63.3377C202.524 62.5733 202.379 62.0362 202.09 61.6781C201.801 61.3201 201.443 61.141 201.002 61.141C200.561 61.141 200.183 61.3201 199.887 61.6713C199.584 62.0224 199.432 62.5802 199.432 63.3377C199.432 63.7233 199.473 64.0538 199.549 64.3293C199.625 64.6047 199.742 64.8388 199.88 65.0179C200.018 65.1969 200.19 65.3277 200.376 65.4173C200.561 65.5068 200.768 65.5481 200.995 65.5481H201.002Z" fill="black"/>
<path d="M205.698 60.0255H207.606V62.0913H208.549C209.472 62.0913 210.195 62.2772 210.705 62.6559C211.221 63.0278 211.476 63.5855 211.476 64.3292C211.476 64.7148 211.4 65.0454 211.255 65.3346C211.111 65.6238 210.904 65.8648 210.643 66.0576C210.381 66.2573 210.071 66.4019 209.706 66.5052C209.341 66.6085 208.949 66.6567 208.522 66.6567H205.698V60.0255ZM207.606 63.2068V65.548H208.288C208.673 65.548 208.976 65.4585 209.21 65.2795C209.438 65.1005 209.555 64.8043 209.555 64.3843C209.555 63.9643 209.451 63.6682 209.238 63.4822C209.024 63.2963 208.721 63.2068 208.329 63.2068H207.613H207.606ZM214.065 66.6567H212.171V60.0255H214.065V66.6567Z" fill="black"/>
</svg>
